<svg width="100" height="100" viewBox="0 0 100 100" fill="none" xmlns="http://www.w3.org/2000/svg">
<path d="M50.0001 8.33398L16.6667 20.834V54.1673C16.6667 68.7507 29.1667 81.2507 50.0001 91.6673C70.8334 81.2507 83.3334 68.7507 83.3334 54.1673V20.834L50.0001 8.33398Z" stroke="black" stroke-width="4.8"/>
<path d="M50.5742 12.0996V19.625C54.7631 20.1282 58.1289 21.5819 60.6289 24.0244L61.1064 24.4961C63.4401 26.8731 64.941 29.5402 65.5859 32.4961L65.7188 33.1025H63.0469L62.9521 32.7236C62.3703 30.3963 61.0155 28.1493 58.8506 25.9844L58.8467 25.9795C56.8358 23.9184 54.0917 22.6274 50.5742 22.1328V48.168C53.9687 49.1904 56.7568 50.2417 58.9297 51.3281H58.9287C61.2197 52.418 63.1358 54.0509 64.6748 56.2168L64.9609 56.6406C66.3403 58.8002 67.0088 61.591 67.0088 64.9727C67.0088 67.4861 66.4366 69.8865 65.2959 72.168C64.2655 74.3327 62.6305 76.1312 60.4131 77.5674L59.9609 77.8506C57.4828 79.349 54.3705 80.0811 50.6553 80.0811H50.5742V86.7207H47.9141V79.9482C44.9891 79.6266 42.3581 78.7934 40.0293 77.4395L40.0215 77.4355C37.5853 75.9625 35.6471 74.1417 34.2188 71.9707L34.2148 71.9639L34.2109 71.958C32.8481 69.7435 32.0193 67.433 31.7334 65.0312L31.666 64.4727H34.3291L34.3857 64.9082C34.5965 66.5416 35.2314 68.2764 36.3125 70.1143L36.5176 70.4512C37.5717 72.1228 39.054 73.6184 40.9775 74.9346L41.3623 75.1885C43.1826 76.3419 45.3625 77.0953 47.9141 77.4385V50.0723C44.4708 49.0544 41.6614 48.0612 39.4941 47.0859L39.4873 47.082L39.4805 47.0791C37.388 46.0597 35.5985 44.6126 34.1143 42.7441L33.8213 42.3643L33.8174 42.3594C32.2432 40.2021 31.4805 37.3771 31.4805 33.9307C31.4805 29.8966 32.7974 26.5288 35.4414 23.8652L35.7012 23.6094C38.5871 20.839 42.6277 19.4864 47.75 19.4863H47.9141V12.0996H50.5742ZM50.5742 77.5869H50.6553C55.158 77.5869 58.5255 76.3679 60.8389 74.002C63.1744 71.6133 64.3486 68.6162 64.3486 64.9727C64.3486 61.9998 63.7001 59.6476 62.4482 57.874L62.4443 57.8682C61.1638 56.0007 59.542 54.5926 57.5752 53.6357L57.5674 53.6328L57.5605 53.6289C55.7427 52.6695 53.4157 51.7518 50.5742 50.875V77.5869ZM47.75 21.9805C43.7085 21.9805 40.4796 22.9959 38.0186 24.9854L37.7822 25.1816C35.3692 27.2275 34.1406 30.1201 34.1406 33.9307C34.1406 36.7931 34.7619 39.0631 35.96 40.7822C37.2382 42.4823 38.8325 43.8098 40.748 44.7686C42.6273 45.6312 45.0145 46.4969 47.9141 47.3682V21.9805H47.75Z" fill="black" stroke="black"/>
</svg>
