<?xml version="1.0" encoding="utf-8"?><!-- Uploaded to: SVG Repo, www.svgrepo.com, Generator: SVG Repo Mixer Tools -->
<svg width="800px" height="800px" viewBox="0 0 24 24" xmlns="http://www.w3.org/2000/svg"><path d="M11.795 2.203c.069 0 .137-.003.205-.003 4.97 0 10 1.133 10 3.3V14h-.5a1.5 1.5 0 0 0-.306.032L21 13.935v-1.917a6.237 6.237 0 0 1-1.265.644 1.486 1.486 0 0 0-1.187-.657C20.118 11.546 21 10.97 21 10.5V7.018C19.292 8.191 15.634 8.8 12 8.8c-.148 0-.295-.004-.442-.006l-.29-.652.926-.345C17.574 7.765 21 6.427 21 5.5c0-.938-3.506-2.3-9-2.3-.169 0-.33.005-.495.008l.214-.467a.991.991 0 0 0 .076-.538zM14 20.734c-.631.043-1.298.066-2 .066-5.576 0-9-1.456-9-2.5v-6.282a6.753 6.753 0 0 0 1.587.765.992.992 0 0 1-.326-.434l-.349-.939a4.3 4.3 0 0 1-.166-.092l-.985.44a.967.967 0 0 1-.761.018V18.3c0 2.273 5.152 3.5 10 3.5a29.1 29.1 0 0 0 2.023-.073A1.487 1.487 0 0 1 14 21.5zM7.707 12.49a.99.99 0 0 1-.86.511H5.279a25.89 25.89 0 0 0 6.722.8 30.656 30.656 0 0 0 4-.258V13.5a1.492 1.492 0 0 1 .414-1.029A28.12 28.12 0 0 1 12 12.8a28.253 28.253 0 0 1-4.293-.311zM6 8a2 2 0 1 1 2-2 2 2 0 0 1-2 2zM5 6a1 1 0 1 0 1-1 1 1 0 0 0-1 1zM1.186 9.68l.71-1.543-.236-.653L0 6.848v-1.65l1.586-.59.295-.628-.727-1.627L2.32 1.186l1.543.71.653-.236L5.152 0h1.65l.59 1.586.628.296 1.624-.724 1.166 1.167-.705 1.538.235.653 1.66.636v1.65l-1.586.59-.296.628.724 1.624-1.162 1.17-1.543-.71-.653.236L6.848 12h-1.65l-.59-1.586-.628-.295-1.627.727zm1.241-2.816l.434 1.205-.59 1.283.411.41 1.4-.626 1.161.545.49 1.319h.582l.548-1.427 1.206-.434 1.28.588.411-.413-.623-1.399.544-1.158L11 6.267v-.582l-1.427-.548-.434-1.204.585-1.28-.412-.412-1.397.622-1.158-.544L6.267 1h-.582l-.548 1.427-1.206.434-1.283-.59-.41.411.626 1.4-.545 1.161L1 5.733v.582zM23 15.5v1a.5.5 0 0 1-.5.5h-.26l-.67 4.014a.494.494 0 0 1 .43.486v1a.5.5 0 0 1-.5.5h-1a.5.5 0 0 1-.5-.5v-.292l-3.021-.604A.493.493 0 0 1 16.5 22h-1a.5.5 0 0 1-.5-.5v-1a.495.495 0 0 1 .346-.469L14.838 18H14.5a.5.5 0 0 1-.5-.5v-1a.5.5 0 0 1 .5-.5h.934L17 14.434V13.5a.5.5 0 0 1 .5-.5h1a.5.5 0 0 1 .5.5v.553l2.164 1.082A.495.495 0 0 1 21.5 15h1a.5.5 0 0 1 .5.5zm-7 1.066v.272l2.031.507a.49.49 0 0 1 .314-.314L17.838 15h-.272zm2.655-1.597L19.162 17h.338a.491.491 0 0 1 .212.05L21 16.189v-.24l-2.164-1.083a.494.494 0 0 1-.181.104zm2.638 1.983L20 17.814v.686a.495.495 0 0 1-.135.336l.943 1.885.622-3.735a.502.502 0 0 1-.137-.034zm-5.639 1.017L16.162 20h.272L18 18.434v-.271l-2.031-.509a.49.49 0 0 1-.315.315zm4.367 3.427a.493.493 0 0 1 .114-.232L19.053 19h-.496L17 20.563v.229z"/><path fill="none" d="M0 0h24v24H0z"/></svg>