<svg viewBox="0 0 24 24" xmlns="http://www.w3.org/2000/svg">
  <!-- Main grid structure with very thin lines -->
  <g fill="none" stroke="#000000" stroke-width="0.7">
    <!-- Top left square - normal size -->
    <rect x="3" y="3" width="7" height="7" />
    
    <!-- Top right square - larger -->
    <rect x="12" y="3" width="9" height="9" />
    
    <!-- Bottom left square - normal size -->
    <rect x="3" y="12" width="7" height="7" />
    
    <!-- Bottom right square - normal size -->
    <rect x="12" y="14" width="7" height="7" />
    
    <!-- Text-like content lines -->
    <!-- Top left square content -->
    <line x1="4" y1="5" x2="9" y2="5" />
    <line x1="4" y1="7" x2="7" y2="7" />
    
    <!-- Top right square content (more lines since it's larger) -->
    <line x1="13" y1="5" x2="20" y2="5" />
    <line x1="13" y1="7" x2="18" y2="7" />
    <line x1="13" y1="9" x2="19" y2="9" />
    <line x1="13" y1="11" x2="16" y2="11" />
    
    <!-- Bottom left square content -->
    <line x1="4" y1="14" x2="9" y2="14" />
    <line x1="4" y1="16" x2="7" y2="16" />
    
    <!-- Bottom right square content -->
    <line x1="13" y1="16" x2="18" y2="16" />
    <line x1="13" y1="18" x2="16" y2="18" />
  </g>
  
  <!-- Dynamic indicators - dots at the end of some lines -->
  <g fill="#000000">
    <circle cx="9" cy="5" r="0.4" />
    <circle cx="20" cy="5" r="0.4" />
    <circle cx="19" cy="9" r="0.4" />
    <circle cx="9" cy="14" r="0.4" />
    <circle cx="16" cy="18" r="0.4" />
  </g>
</svg>