<svg width="1215" height="220" viewBox="0 0 1215 220" fill="none" xmlns="http://www.w3.org/2000/svg">
<path d="M159.083 170.117V195H155.835V170.117H159.083ZM167.081 170.117V172.817H147.854V170.117H167.081ZM185.008 170.117H188.289V186.951C188.289 188.819 187.873 190.374 187.042 191.616C186.21 192.858 185.105 193.792 183.726 194.419C182.359 195.034 180.872 195.342 179.266 195.342C177.579 195.342 176.053 195.034 174.686 194.419C173.33 193.792 172.253 192.858 171.456 191.616C170.669 190.374 170.276 188.819 170.276 186.951V170.117H173.541V186.951C173.541 188.25 173.78 189.32 174.258 190.164C174.737 191.007 175.403 191.633 176.258 192.043C177.124 192.454 178.126 192.659 179.266 192.659C180.416 192.659 181.419 192.454 182.273 192.043C183.139 191.633 183.812 191.007 184.29 190.164C184.769 189.32 185.008 188.25 185.008 186.951V170.117ZM193.467 170.117H201.705C203.573 170.117 205.151 170.402 206.438 170.972C207.737 171.541 208.723 172.384 209.395 173.501C210.079 174.606 210.42 175.968 210.42 177.585C210.42 178.725 210.187 179.767 209.72 180.713C209.264 181.647 208.603 182.445 207.737 183.105C206.883 183.755 205.857 184.239 204.661 184.558L203.738 184.917H195.997L195.962 182.234H201.807C202.992 182.234 203.978 182.029 204.764 181.619C205.55 181.197 206.142 180.633 206.541 179.927C206.94 179.22 207.139 178.44 207.139 177.585C207.139 176.628 206.951 175.791 206.575 175.073C206.199 174.355 205.607 173.803 204.798 173.416C204 173.017 202.969 172.817 201.705 172.817H196.766V195H193.467V170.117ZM208.011 195L201.961 183.721L205.396 183.704L211.531 194.795V195H208.011ZM234.175 170.117V195H230.86L218.333 175.808V195H215.035V170.117H218.333L230.911 189.36V170.117H234.175ZM243.558 170.117V195H240.259V170.117H243.558ZM268.697 170.117V195H265.381L252.854 175.808V195H249.556V170.117H252.854L265.433 189.36V170.117H268.697ZM292.93 182.61V191.719C292.623 192.174 292.133 192.687 291.46 193.257C290.788 193.815 289.86 194.305 288.675 194.727C287.501 195.137 285.986 195.342 284.129 195.342C282.614 195.342 281.218 195.08 279.942 194.556C278.677 194.02 277.578 193.245 276.644 192.231C275.721 191.206 275.003 189.964 274.49 188.506C273.989 187.036 273.738 185.373 273.738 183.516V181.584C273.738 179.727 273.955 178.07 274.388 176.611C274.832 175.153 275.481 173.917 276.336 172.903C277.19 171.877 278.239 171.103 279.48 170.579C280.722 170.043 282.146 169.775 283.753 169.775C285.656 169.775 287.245 170.106 288.521 170.767C289.808 171.416 290.811 172.316 291.529 173.467C292.258 174.618 292.725 175.928 292.93 177.397H289.632C289.484 176.497 289.188 175.677 288.743 174.937C288.31 174.196 287.689 173.604 286.88 173.159C286.071 172.703 285.029 172.476 283.753 172.476C282.602 172.476 281.605 172.686 280.762 173.108C279.919 173.529 279.224 174.133 278.677 174.919C278.13 175.706 277.72 176.657 277.447 177.773C277.185 178.89 277.054 180.149 277.054 181.55V183.516C277.054 184.951 277.219 186.233 277.549 187.361C277.891 188.489 278.375 189.451 279.002 190.249C279.629 191.035 280.375 191.633 281.241 192.043C282.118 192.454 283.086 192.659 284.146 192.659C285.319 192.659 286.271 192.562 287 192.368C287.729 192.163 288.299 191.924 288.709 191.65C289.119 191.366 289.432 191.098 289.649 190.847V185.276H283.89V182.61H292.93ZM308.226 170.117L314.686 182.61L321.163 170.117H324.905L316.326 185.703V195H313.028V185.703L304.449 170.117H308.226ZM346.746 181.772V183.345C346.746 185.213 346.513 186.888 346.045 188.369C345.578 189.85 344.906 191.109 344.029 192.146C343.152 193.183 342.098 193.975 340.867 194.521C339.648 195.068 338.281 195.342 336.766 195.342C335.296 195.342 333.946 195.068 332.715 194.521C331.496 193.975 330.437 193.183 329.537 192.146C328.648 191.109 327.959 189.85 327.469 188.369C326.979 186.888 326.734 185.213 326.734 183.345V181.772C326.734 179.904 326.973 178.235 327.452 176.765C327.942 175.284 328.631 174.025 329.52 172.988C330.408 171.94 331.462 171.143 332.681 170.596C333.912 170.049 335.262 169.775 336.731 169.775C338.247 169.775 339.614 170.049 340.833 170.596C342.063 171.143 343.117 171.94 343.995 172.988C344.883 174.025 345.561 175.284 346.028 176.765C346.507 178.235 346.746 179.904 346.746 181.772ZM343.482 183.345V181.738C343.482 180.257 343.328 178.947 343.021 177.808C342.724 176.668 342.286 175.711 341.705 174.937C341.124 174.162 340.411 173.575 339.568 173.176C338.737 172.778 337.791 172.578 336.731 172.578C335.706 172.578 334.778 172.778 333.946 173.176C333.125 173.575 332.419 174.162 331.827 174.937C331.246 175.711 330.796 176.668 330.477 177.808C330.158 178.947 329.998 180.257 329.998 181.738V183.345C329.998 184.837 330.158 186.159 330.477 187.31C330.796 188.449 331.251 189.412 331.844 190.198C332.448 190.972 333.16 191.559 333.98 191.958C334.812 192.357 335.74 192.556 336.766 192.556C337.837 192.556 338.788 192.357 339.62 191.958C340.451 191.559 341.152 190.972 341.722 190.198C342.303 189.412 342.741 188.449 343.038 187.31C343.334 186.159 343.482 184.837 343.482 183.345ZM365.921 170.117H369.202V186.951C369.202 188.819 368.786 190.374 367.955 191.616C367.123 192.858 366.018 193.792 364.639 194.419C363.272 195.034 361.785 195.342 360.179 195.342C358.493 195.342 356.966 195.034 355.599 194.419C354.243 193.792 353.166 192.858 352.369 191.616C351.583 190.374 351.189 188.819 351.189 186.951V170.117H354.454V186.951C354.454 188.25 354.693 189.32 355.171 190.164C355.65 191.007 356.316 191.633 357.171 192.043C358.037 192.454 359.039 192.659 360.179 192.659C361.329 192.659 362.332 192.454 363.187 192.043C364.052 191.633 364.725 191.007 365.203 190.164C365.682 189.32 365.921 188.25 365.921 186.951V170.117ZM374.38 170.117H382.618C384.486 170.117 386.064 170.402 387.352 170.972C388.65 171.541 389.636 172.384 390.308 173.501C390.992 174.606 391.333 175.968 391.333 177.585C391.333 178.725 391.1 179.767 390.633 180.713C390.177 181.647 389.516 182.445 388.65 183.105C387.796 183.755 386.771 184.239 385.574 184.558L384.651 184.917H376.91L376.875 182.234H382.72C383.905 182.234 384.891 182.029 385.677 181.619C386.463 181.197 387.055 180.633 387.454 179.927C387.853 179.22 388.052 178.44 388.052 177.585C388.052 176.628 387.864 175.791 387.488 175.073C387.112 174.355 386.52 173.803 385.711 173.416C384.913 173.017 383.882 172.817 382.618 172.817H377.679V195H374.38V170.117ZM388.924 195L382.874 183.721L386.309 183.704L392.444 194.795V195H388.924ZM420.438 192.317V195H407.261V192.317H420.438ZM407.928 170.117V195H404.629V170.117H407.928ZM418.694 180.815V183.499H407.261V180.815H418.694ZM420.267 170.117V172.817H407.261V170.117H420.267ZM425.564 170.117H428.76L436.912 190.403L445.047 170.117H448.26L438.143 195H435.647L425.564 170.117ZM424.522 170.117H427.342L427.803 185.293V195H424.522V170.117ZM446.465 170.117H449.285V195H446.004V185.293L446.465 170.117ZM463.948 183.362H457.642L457.608 180.713H463.333C464.279 180.713 465.105 180.553 465.811 180.234C466.517 179.915 467.064 179.46 467.452 178.867C467.85 178.263 468.05 177.546 468.05 176.714C468.05 175.802 467.873 175.062 467.52 174.492C467.178 173.911 466.648 173.49 465.931 173.228C465.224 172.954 464.324 172.817 463.23 172.817H458.377V195H455.079V170.117H463.23C464.507 170.117 465.646 170.248 466.648 170.51C467.651 170.761 468.5 171.16 469.195 171.707C469.901 172.242 470.437 172.926 470.801 173.757C471.166 174.589 471.348 175.586 471.348 176.748C471.348 177.773 471.086 178.702 470.562 179.534C470.038 180.354 469.309 181.026 468.375 181.55C467.452 182.074 466.369 182.41 465.127 182.559L463.948 183.362ZM463.794 195H456.343L458.206 192.317H463.794C464.843 192.317 465.731 192.135 466.46 191.77C467.201 191.405 467.765 190.893 468.152 190.232C468.54 189.56 468.733 188.768 468.733 187.856C468.733 186.934 468.568 186.136 468.238 185.464C467.907 184.792 467.389 184.273 466.683 183.909C465.976 183.544 465.065 183.362 463.948 183.362H459.249L459.283 180.713H465.708L466.409 181.67C467.605 181.772 468.619 182.114 469.451 182.695C470.283 183.265 470.915 183.994 471.348 184.883C471.792 185.771 472.015 186.751 472.015 187.822C472.015 189.372 471.673 190.682 470.989 191.753C470.317 192.812 469.366 193.621 468.135 194.18C466.905 194.727 465.458 195 463.794 195ZM492.693 192.317V195H479.517V192.317H492.693ZM480.184 170.117V195H476.885V170.117H480.184ZM490.95 180.815V183.499H479.517V180.815H490.95ZM492.522 170.117V172.817H479.517V170.117H492.522ZM503.511 195H498.316L498.35 192.317H503.511C505.289 192.317 506.77 191.947 507.955 191.206C509.139 190.454 510.028 189.406 510.621 188.062C511.224 186.706 511.526 185.122 511.526 183.311V181.79C511.526 180.365 511.355 179.101 511.014 177.996C510.672 176.879 510.171 175.939 509.51 175.176C508.849 174.401 508.04 173.814 507.083 173.416C506.137 173.017 505.049 172.817 503.819 172.817H498.213V170.117H503.819C505.448 170.117 506.935 170.391 508.279 170.938C509.624 171.473 510.78 172.253 511.749 173.279C512.728 174.293 513.48 175.523 514.004 176.97C514.528 178.406 514.791 180.024 514.791 181.824V183.311C514.791 185.111 514.528 186.734 514.004 188.181C513.48 189.617 512.723 190.841 511.731 191.855C510.752 192.869 509.567 193.65 508.177 194.197C506.798 194.732 505.243 195 503.511 195ZM500.076 170.117V195H496.778V170.117H500.076ZM526.48 195H521.285L521.319 192.317H526.48C528.257 192.317 529.738 191.947 530.923 191.206C532.108 190.454 532.997 189.406 533.589 188.062C534.193 186.706 534.495 185.122 534.495 183.311V181.79C534.495 180.365 534.324 179.101 533.982 177.996C533.641 176.879 533.139 175.939 532.479 175.176C531.818 174.401 531.009 173.814 530.052 173.416C529.106 173.017 528.018 172.817 526.788 172.817H521.182V170.117H526.788C528.417 170.117 529.904 170.391 531.248 170.938C532.592 171.473 533.749 172.253 534.717 173.279C535.697 174.293 536.449 175.523 536.973 176.97C537.497 178.406 537.759 180.024 537.759 181.824V183.311C537.759 185.111 537.497 186.734 536.973 188.181C536.449 189.617 535.691 190.841 534.7 191.855C533.72 192.869 532.535 193.65 531.146 194.197C529.767 194.732 528.212 195 526.48 195ZM523.045 170.117V195H519.747V170.117H523.045ZM546.253 170.117V195H542.955V170.117H546.253ZM571.392 170.117V195H568.077L555.55 175.808V195H552.251V170.117H555.55L568.128 189.36V170.117H571.392ZM595.625 182.61V191.719C595.318 192.174 594.828 192.687 594.156 193.257C593.484 193.815 592.555 194.305 591.37 194.727C590.197 195.137 588.681 195.342 586.824 195.342C585.309 195.342 583.913 195.08 582.637 194.556C581.373 194.02 580.273 193.245 579.339 192.231C578.416 191.206 577.698 189.964 577.186 188.506C576.684 187.036 576.434 185.373 576.434 183.516V181.584C576.434 179.727 576.65 178.07 577.083 176.611C577.527 175.153 578.177 173.917 579.031 172.903C579.886 171.877 580.934 171.103 582.176 170.579C583.418 170.043 584.842 169.775 586.448 169.775C588.351 169.775 589.94 170.106 591.216 170.767C592.504 171.416 593.506 172.316 594.224 173.467C594.953 174.618 595.42 175.928 595.625 177.397H592.327C592.179 176.497 591.883 175.677 591.438 174.937C591.006 174.196 590.385 173.604 589.576 173.159C588.767 172.703 587.724 172.476 586.448 172.476C585.298 172.476 584.301 172.686 583.458 173.108C582.614 173.529 581.919 174.133 581.373 174.919C580.826 175.706 580.416 176.657 580.142 177.773C579.88 178.89 579.749 180.149 579.749 181.55V183.516C579.749 184.951 579.914 186.233 580.245 187.361C580.586 188.489 581.071 189.451 581.697 190.249C582.324 191.035 583.07 191.633 583.936 192.043C584.813 192.454 585.782 192.659 586.841 192.659C588.015 192.659 588.966 192.562 589.695 192.368C590.424 192.163 590.994 191.924 591.404 191.65C591.814 191.366 592.128 191.098 592.344 190.847V185.276H586.585V182.61H595.625ZM610.818 170.117H614.014L622.166 190.403L630.301 170.117H633.514L623.396 195H620.901L610.818 170.117ZM609.776 170.117H612.596L613.057 185.293V195H609.776V170.117ZM631.719 170.117H634.539V195H631.258V185.293L631.719 170.117ZM659.49 181.772V183.345C659.49 185.213 659.257 186.888 658.79 188.369C658.322 189.85 657.65 191.109 656.773 192.146C655.896 193.183 654.842 193.975 653.611 194.521C652.392 195.068 651.025 195.342 649.51 195.342C648.04 195.342 646.69 195.068 645.459 194.521C644.24 193.975 643.181 193.183 642.281 192.146C641.392 191.109 640.703 189.85 640.213 188.369C639.723 186.888 639.478 185.213 639.478 183.345V181.772C639.478 179.904 639.717 178.235 640.196 176.765C640.686 175.284 641.375 174.025 642.264 172.988C643.152 171.94 644.206 171.143 645.425 170.596C646.656 170.049 648.006 169.775 649.476 169.775C650.991 169.775 652.358 170.049 653.577 170.596C654.808 171.143 655.861 171.94 656.739 172.988C657.627 174.025 658.305 175.284 658.772 176.765C659.251 178.235 659.49 179.904 659.49 181.772ZM656.226 183.345V181.738C656.226 180.257 656.072 178.947 655.765 177.808C655.468 176.668 655.03 175.711 654.449 174.937C653.868 174.162 653.156 173.575 652.312 173.176C651.481 172.778 650.535 172.578 649.476 172.578C648.45 172.578 647.522 172.778 646.69 173.176C645.87 173.575 645.163 174.162 644.571 174.937C643.99 175.711 643.54 176.668 643.221 177.808C642.902 178.947 642.742 180.257 642.742 181.738V183.345C642.742 184.837 642.902 186.159 643.221 187.31C643.54 188.449 643.995 189.412 644.588 190.198C645.192 190.972 645.904 191.559 646.724 191.958C647.556 192.357 648.484 192.556 649.51 192.556C650.581 192.556 651.532 192.357 652.364 191.958C653.195 191.559 653.896 190.972 654.466 190.198C655.047 189.412 655.486 188.449 655.782 187.31C656.078 186.159 656.226 184.837 656.226 183.345ZM671.163 195H665.967L666.001 192.317H671.163C672.94 192.317 674.421 191.947 675.606 191.206C676.791 190.454 677.68 189.406 678.272 188.062C678.876 186.706 679.178 185.122 679.178 183.311V181.79C679.178 180.365 679.007 179.101 678.665 177.996C678.323 176.879 677.822 175.939 677.161 175.176C676.5 174.401 675.691 173.814 674.734 173.416C673.789 173.017 672.701 172.817 671.47 172.817H665.865V170.117H671.47C673.099 170.117 674.586 170.391 675.931 170.938C677.275 171.473 678.431 172.253 679.4 173.279C680.38 174.293 681.132 175.523 681.656 176.97C682.18 178.406 682.442 180.024 682.442 181.824V183.311C682.442 185.111 682.18 186.734 681.656 188.181C681.132 189.617 680.374 190.841 679.383 191.855C678.403 192.869 677.218 193.65 675.828 194.197C674.45 194.732 672.894 195 671.163 195ZM667.728 170.117V195H664.429V170.117H667.728ZM703.206 192.317V195H690.03V192.317H703.206ZM690.696 170.117V195H687.398V170.117H690.696ZM701.463 180.815V183.499H690.03V180.815H701.463ZM703.035 170.117V172.817H690.03V170.117H703.035ZM722.381 192.317V195H709.939V192.317H722.381ZM710.589 170.117V195H707.291V170.117H710.589ZM738.377 170.117V195H735.079V170.117H738.377ZM763.516 170.117V195H760.201L747.674 175.808V195H744.375V170.117H747.674L760.252 189.36V170.117H763.516ZM778.042 170.117V195H774.795V170.117H778.042ZM786.041 170.117V172.817H766.814V170.117H786.041ZM808.411 181.772V183.345C808.411 185.213 808.178 186.888 807.71 188.369C807.243 189.85 806.571 191.109 805.694 192.146C804.817 193.183 803.763 193.975 802.532 194.521C801.313 195.068 799.946 195.342 798.431 195.342C796.961 195.342 795.611 195.068 794.38 194.521C793.161 193.975 792.102 193.183 791.202 192.146C790.313 191.109 789.624 189.85 789.134 188.369C788.644 186.888 788.399 185.213 788.399 183.345V181.772C788.399 179.904 788.638 178.235 789.117 176.765C789.607 175.284 790.296 174.025 791.185 172.988C792.073 171.94 793.127 171.143 794.346 170.596C795.577 170.049 796.927 169.775 798.396 169.775C799.912 169.775 801.279 170.049 802.498 170.596C803.729 171.143 804.782 171.94 805.66 172.988C806.548 174.025 807.226 175.284 807.693 176.765C808.172 178.235 808.411 179.904 808.411 181.772ZM805.147 183.345V181.738C805.147 180.257 804.993 178.947 804.686 177.808C804.389 176.668 803.951 175.711 803.37 174.937C802.789 174.162 802.076 173.575 801.233 173.176C800.402 172.778 799.456 172.578 798.396 172.578C797.371 172.578 796.443 172.778 795.611 173.176C794.791 173.575 794.084 174.162 793.492 174.937C792.911 175.711 792.461 176.668 792.142 177.808C791.823 178.947 791.663 180.257 791.663 181.738V183.345C791.663 184.837 791.823 186.159 792.142 187.31C792.461 188.449 792.916 189.412 793.509 190.198C794.113 190.972 794.825 191.559 795.645 191.958C796.477 192.357 797.405 192.556 798.431 192.556C799.502 192.556 800.453 192.357 801.285 191.958C802.116 191.559 802.817 190.972 803.387 190.198C803.968 189.412 804.406 188.449 804.703 187.31C804.999 186.159 805.147 184.837 805.147 183.345ZM831.243 172.322L823.006 195H819.639L829.124 170.117H831.294L831.243 172.322ZM838.147 195L829.893 172.322L829.842 170.117H832.012L841.531 195H838.147ZM837.72 185.789V188.489H823.741V185.789H837.72ZM866.807 188.711C866.807 188.13 866.716 187.617 866.534 187.173C866.363 186.717 866.055 186.307 865.611 185.942C865.178 185.578 864.574 185.23 863.799 184.9C863.036 184.569 862.068 184.233 860.894 183.892C859.664 183.527 858.553 183.123 857.562 182.678C856.57 182.222 855.722 181.704 855.015 181.123C854.309 180.542 853.768 179.875 853.392 179.124C853.016 178.372 852.828 177.511 852.828 176.543C852.828 175.575 853.027 174.68 853.426 173.86C853.825 173.04 854.394 172.327 855.135 171.724C855.887 171.108 856.781 170.63 857.818 170.288C858.855 169.946 860.011 169.775 861.287 169.775C863.156 169.775 864.739 170.134 866.038 170.852C867.348 171.558 868.345 172.487 869.029 173.638C869.712 174.777 870.054 175.996 870.054 177.295H866.773C866.773 176.361 866.574 175.535 866.175 174.817C865.776 174.088 865.172 173.518 864.363 173.108C863.554 172.686 862.529 172.476 861.287 172.476C860.114 172.476 859.145 172.652 858.382 173.005C857.618 173.359 857.049 173.837 856.673 174.441C856.308 175.045 856.126 175.734 856.126 176.509C856.126 177.033 856.234 177.511 856.451 177.944C856.679 178.366 857.026 178.759 857.493 179.124C857.972 179.488 858.576 179.824 859.305 180.132C860.045 180.439 860.928 180.736 861.954 181.021C863.366 181.419 864.585 181.864 865.611 182.354C866.636 182.843 867.479 183.396 868.14 184.011C868.812 184.615 869.308 185.304 869.627 186.079C869.957 186.842 870.123 187.708 870.123 188.677C870.123 189.691 869.917 190.608 869.507 191.428C869.097 192.249 868.51 192.949 867.747 193.53C866.984 194.111 866.067 194.561 864.996 194.88C863.936 195.188 862.751 195.342 861.441 195.342C860.29 195.342 859.157 195.182 858.04 194.863C856.935 194.544 855.927 194.066 855.015 193.428C854.115 192.79 853.392 192.004 852.845 191.069C852.309 190.124 852.042 189.03 852.042 187.788H855.323C855.323 188.643 855.488 189.377 855.818 189.993C856.149 190.597 856.599 191.098 857.168 191.497C857.75 191.895 858.405 192.192 859.134 192.385C859.874 192.568 860.643 192.659 861.441 192.659C862.592 192.659 863.566 192.499 864.363 192.18C865.161 191.861 865.765 191.405 866.175 190.813C866.596 190.221 866.807 189.52 866.807 188.711ZM890.135 192.317V195H876.958V192.317H890.135ZM877.625 170.117V195H874.327V170.117H877.625ZM888.392 180.815V183.499H876.958V180.815H888.392ZM889.964 170.117V172.817H876.958V170.117H889.964ZM903.431 172.322L895.193 195H891.827L901.312 170.117H903.482L903.431 172.322ZM910.335 195L902.081 172.322L902.029 170.117H904.2L913.719 195H910.335ZM909.908 185.789V188.489H895.928V185.789H909.908ZM917.051 170.117H925.289C927.157 170.117 928.735 170.402 930.022 170.972C931.321 171.541 932.307 172.384 932.979 173.501C933.663 174.606 934.004 175.968 934.004 177.585C934.004 178.725 933.771 179.767 933.304 180.713C932.848 181.647 932.187 182.445 931.321 183.105C930.467 183.755 929.441 184.239 928.245 184.558L927.322 184.917H919.581L919.546 182.234H925.391C926.576 182.234 927.562 182.029 928.348 181.619C929.134 181.197 929.726 180.633 930.125 179.927C930.524 179.22 930.723 178.44 930.723 177.585C930.723 176.628 930.535 175.791 930.159 175.073C929.783 174.355 929.191 173.803 928.382 173.416C927.584 173.017 926.553 172.817 925.289 172.817H920.35V195H917.051V170.117ZM931.595 195L925.545 183.721L928.98 183.704L935.115 194.795V195H931.595ZM953.641 187.087H956.922C956.751 188.66 956.301 190.067 955.572 191.309C954.843 192.55 953.812 193.536 952.479 194.265C951.146 194.983 949.482 195.342 947.488 195.342C946.03 195.342 944.703 195.068 943.506 194.521C942.321 193.975 941.302 193.2 940.447 192.197C939.593 191.183 938.932 189.97 938.465 188.557C938.009 187.133 937.781 185.549 937.781 183.806V181.328C937.781 179.585 938.009 178.007 938.465 176.594C938.932 175.17 939.598 173.951 940.464 172.937C941.342 171.923 942.396 171.143 943.626 170.596C944.856 170.049 946.241 169.775 947.779 169.775C949.659 169.775 951.248 170.129 952.547 170.835C953.846 171.541 954.854 172.521 955.572 173.774C956.301 175.016 956.751 176.458 956.922 178.098H953.641C953.481 176.936 953.185 175.939 952.752 175.107C952.319 174.264 951.704 173.615 950.906 173.159C950.109 172.703 949.066 172.476 947.779 172.476C946.674 172.476 945.7 172.686 944.856 173.108C944.025 173.529 943.324 174.128 942.754 174.902C942.196 175.677 941.775 176.606 941.49 177.688C941.205 178.77 941.062 179.972 941.062 181.294V183.806C941.062 185.025 941.188 186.17 941.438 187.241C941.701 188.312 942.094 189.252 942.618 190.061C943.142 190.87 943.808 191.508 944.617 191.975C945.426 192.431 946.383 192.659 947.488 192.659C948.89 192.659 950.006 192.437 950.838 191.992C951.67 191.548 952.296 190.91 952.718 190.078C953.151 189.246 953.458 188.25 953.641 187.087ZM977.669 180.815V183.499H964.202V180.815H977.669ZM964.715 170.117V195H961.417V170.117H964.715ZM980.54 170.117V195H977.259V170.117H980.54ZM1010.89 192.317V195H997.715V192.317H1010.89ZM998.382 170.117V195H995.083V170.117H998.382ZM1009.15 180.815V183.499H997.715V180.815H1009.15ZM1010.72 170.117V172.817H997.715V170.117H1010.72ZM1034.12 170.117V195H1030.8L1018.27 175.808V195H1014.98V170.117H1018.27L1030.85 189.36V170.117H1034.12ZM1058.35 182.61V191.719C1058.04 192.174 1057.55 192.687 1056.88 193.257C1056.21 193.815 1055.28 194.305 1054.09 194.727C1052.92 195.137 1051.41 195.342 1049.55 195.342C1048.03 195.342 1046.64 195.08 1045.36 194.556C1044.1 194.02 1043 193.245 1042.06 192.231C1041.14 191.206 1040.42 189.964 1039.91 188.506C1039.41 187.036 1039.16 185.373 1039.16 183.516V181.584C1039.16 179.727 1039.37 178.07 1039.81 176.611C1040.25 175.153 1040.9 173.917 1041.76 172.903C1042.61 171.877 1043.66 171.103 1044.9 170.579C1046.14 170.043 1047.57 169.775 1049.17 169.775C1051.08 169.775 1052.66 170.106 1053.94 170.767C1055.23 171.416 1056.23 172.316 1056.95 173.467C1057.68 174.618 1058.15 175.928 1058.35 177.397H1055.05C1054.9 176.497 1054.61 175.677 1054.16 174.937C1053.73 174.196 1053.11 173.604 1052.3 173.159C1051.49 172.703 1050.45 172.476 1049.17 172.476C1048.02 172.476 1047.03 172.686 1046.18 173.108C1045.34 173.529 1044.64 174.133 1044.1 174.919C1043.55 175.706 1043.14 176.657 1042.87 177.773C1042.6 178.89 1042.47 180.149 1042.47 181.55V183.516C1042.47 184.951 1042.64 186.233 1042.97 187.361C1043.31 188.489 1043.8 189.451 1044.42 190.249C1045.05 191.035 1045.79 191.633 1046.66 192.043C1047.54 192.454 1048.51 192.659 1049.57 192.659C1050.74 192.659 1051.69 192.562 1052.42 192.368C1053.15 192.163 1053.72 191.924 1054.13 191.65C1054.54 191.366 1054.85 191.098 1055.07 190.847V185.276H1049.31V182.61H1058.35ZM1067.36 170.117V195H1064.06V170.117H1067.36ZM1092.5 170.117V195H1089.18L1076.65 175.808V195H1073.35V170.117H1076.65L1089.23 189.36V170.117H1092.5ZM1114.15 192.317V195H1100.97V192.317H1114.15ZM1101.64 170.117V195H1098.34V170.117H1101.64ZM1112.41 180.815V183.499H1100.97V180.815H1112.41ZM1113.98 170.117V172.817H1100.97V170.117H1113.98Z" fill="#676767"/>
<path d="M201.62 132.975V146H158.48V132.975H201.62ZM163.936 64.9531V146H147.236V64.9531H163.936ZM195.998 97.9619V110.653H158.48V97.9619H195.998ZM201.564 64.9531V78.0342H158.48V64.9531H201.564ZM218.987 64.9531H233.126L253.944 124.458L274.763 64.9531H288.901L259.622 146H248.267L218.987 64.9531ZM211.361 64.9531H225.444L228.005 122.955V146H211.361V64.9531ZM282.444 64.9531H296.583V146H279.884V122.955L282.444 64.9531ZM342.951 110.431H322.133L322.021 98.9639H339.5C342.58 98.9639 345.104 98.5742 347.07 97.7949C349.037 96.9785 350.503 95.8096 351.468 94.2881C352.47 92.7295 352.971 90.8369 352.971 88.6104C352.971 86.0869 352.488 84.0459 351.523 82.4873C350.596 80.9287 349.13 79.7969 347.126 79.0918C345.159 78.3867 342.617 78.0342 339.5 78.0342H327.922V146H311.223V64.9531H339.5C344.213 64.9531 348.425 65.3984 352.136 66.2891C355.884 67.1797 359.057 68.5342 361.654 70.3525C364.252 72.1709 366.237 74.4717 367.61 77.2549C368.983 80.001 369.67 83.2666 369.67 87.0518C369.67 90.3916 368.909 93.4717 367.388 96.292C365.903 99.1123 363.547 101.413 360.318 103.194C357.127 104.976 352.952 105.959 347.794 106.145L342.951 110.431ZM342.228 146H317.568L324.081 132.975H342.228C345.159 132.975 347.553 132.511 349.408 131.583C351.264 130.618 352.637 129.319 353.527 127.687C354.418 126.054 354.863 124.18 354.863 122.064C354.863 119.689 354.455 117.63 353.639 115.886C352.859 114.142 351.598 112.806 349.854 111.878C348.109 110.913 345.809 110.431 342.951 110.431H326.864L326.976 98.9639H347.015L350.855 103.473C355.791 103.398 359.762 104.271 362.768 106.089C365.811 107.87 368.019 110.189 369.392 113.047C370.802 115.904 371.507 118.966 371.507 122.231C371.507 127.427 370.375 131.806 368.111 135.368C365.848 138.894 362.526 141.547 358.147 143.328C353.806 145.109 348.499 146 342.228 146ZM438.415 132.975V146H395.275V132.975H438.415ZM400.73 64.9531V146H384.031V64.9531H400.73ZM432.793 97.9619V110.653H395.275V97.9619H432.793ZM438.359 64.9531V78.0342H395.275V64.9531H438.359ZM473.038 146H455.393L455.504 132.975H473.038C477.417 132.975 481.109 131.991 484.115 130.024C487.121 128.021 489.385 125.107 490.906 121.285C492.465 117.463 493.244 112.843 493.244 107.425V103.473C493.244 99.3164 492.799 95.6611 491.908 92.5068C491.055 89.3525 489.774 86.6992 488.067 84.5469C486.36 82.3945 484.264 80.7803 481.777 79.7041C479.291 78.5908 476.434 78.0342 473.205 78.0342H455.059V64.9531H473.205C478.623 64.9531 483.577 65.8809 488.067 67.7363C492.595 69.5547 496.51 72.1709 499.812 75.585C503.115 78.999 505.657 83.0811 507.438 87.8311C509.257 92.5439 510.166 97.7949 510.166 103.584V107.425C510.166 113.177 509.257 118.428 507.438 123.178C505.657 127.928 503.115 132.01 499.812 135.424C496.547 138.801 492.632 141.417 488.067 143.272C483.54 145.091 478.53 146 473.038 146ZM464.855 64.9531V146H448.156V64.9531H464.855ZM547.183 146H529.537L529.648 132.975H547.183C551.562 132.975 555.254 131.991 558.26 130.024C561.266 128.021 563.529 125.107 565.051 121.285C566.609 117.463 567.389 112.843 567.389 107.425V103.473C567.389 99.3164 566.943 95.6611 566.053 92.5068C565.199 89.3525 563.919 86.6992 562.212 84.5469C560.505 82.3945 558.408 80.7803 555.922 79.7041C553.436 78.5908 550.578 78.0342 547.35 78.0342H529.203V64.9531H547.35C552.768 64.9531 557.722 65.8809 562.212 67.7363C566.739 69.5547 570.654 72.1709 573.957 75.585C577.26 78.999 579.802 83.0811 581.583 87.8311C583.401 92.5439 584.311 97.7949 584.311 103.584V107.425C584.311 113.177 583.401 118.428 581.583 123.178C579.802 127.928 577.26 132.01 573.957 135.424C570.691 138.801 566.776 141.417 562.212 143.272C557.685 145.091 552.675 146 547.183 146ZM539 64.9531V146H522.301V64.9531H539ZM614.202 64.9531V146H597.559V64.9531H614.202ZM695.806 64.9531V146H679.106L646.543 91.6719V146H629.844V64.9531H646.543L679.162 119.337V64.9531H695.806ZM774.57 103.64V135.758C773.309 137.279 771.36 138.931 768.726 140.712C766.091 142.456 762.695 143.959 758.539 145.221C754.383 146.482 749.354 147.113 743.454 147.113C738.222 147.113 733.453 146.26 729.148 144.553C724.844 142.809 721.133 140.267 718.016 136.927C714.936 133.587 712.561 129.505 710.891 124.681C709.221 119.819 708.386 114.271 708.386 108.037V102.972C708.386 96.7373 709.184 91.1895 710.779 86.3281C712.412 81.4668 714.731 77.3662 717.737 74.0264C720.743 70.6865 724.324 68.1445 728.48 66.4004C732.637 64.6562 737.257 63.7842 742.341 63.7842C749.392 63.7842 755.181 64.9346 759.708 67.2354C764.235 69.499 767.687 72.6533 770.062 76.6982C772.474 80.7061 773.958 85.3076 774.515 90.5029H758.316C757.908 87.7568 757.129 85.3633 755.979 83.3223C754.828 81.2812 753.177 79.6855 751.024 78.5352C748.909 77.3848 746.163 76.8096 742.786 76.8096C740.003 76.8096 737.517 77.3848 735.327 78.5352C733.175 79.6484 731.356 81.2998 729.872 83.4893C728.388 85.6787 727.256 88.3877 726.477 91.6162C725.697 94.8447 725.308 98.5928 725.308 102.86V108.037C725.308 112.268 725.716 116.016 726.532 119.281C727.349 122.51 728.555 125.237 730.15 127.464C731.783 129.653 733.787 131.305 736.162 132.418C738.537 133.531 741.302 134.088 744.456 134.088C747.091 134.088 749.28 133.865 751.024 133.42C752.806 132.975 754.234 132.437 755.311 131.806C756.424 131.138 757.277 130.507 757.871 129.913V115.552H742.619V103.64H774.57ZM858.623 124.792C858.623 123.345 858.4 122.046 857.955 120.896C857.547 119.708 856.768 118.632 855.617 117.667C854.467 116.665 852.853 115.682 850.774 114.717C848.696 113.752 846.006 112.75 842.703 111.711C839.029 110.523 835.541 109.188 832.238 107.703C828.973 106.219 826.078 104.493 823.555 102.526C821.068 100.522 819.102 98.2031 817.654 95.5684C816.244 92.9336 815.539 89.8721 815.539 86.3838C815.539 83.0068 816.281 79.9453 817.766 77.1992C819.25 74.416 821.328 72.041 824 70.0742C826.672 68.0703 829.826 66.5303 833.463 65.4541C837.137 64.3779 841.163 63.8398 845.542 63.8398C851.517 63.8398 856.73 64.916 861.184 67.0684C865.637 69.2207 869.088 72.1709 871.537 75.9189C874.023 79.667 875.267 83.9531 875.267 88.7773H858.679C858.679 86.4023 858.178 84.3242 857.176 82.543C856.211 80.7246 854.727 79.2959 852.723 78.2568C850.756 77.2178 848.27 76.6982 845.264 76.6982C842.369 76.6982 839.957 77.1436 838.027 78.0342C836.098 78.8877 834.65 80.0566 833.686 81.541C832.721 82.9883 832.238 84.6211 832.238 86.4395C832.238 87.8125 832.572 89.0557 833.24 90.1689C833.945 91.2822 834.984 92.3213 836.357 93.2861C837.73 94.251 839.419 95.1602 841.423 96.0137C843.427 96.8672 845.746 97.7021 848.381 98.5186C852.797 99.8545 856.675 101.357 860.015 103.027C863.392 104.697 866.212 106.571 868.476 108.649C870.739 110.728 872.446 113.084 873.597 115.719C874.747 118.354 875.322 121.341 875.322 124.681C875.322 128.206 874.636 131.36 873.263 134.144C871.89 136.927 869.904 139.283 867.307 141.213C864.709 143.143 861.61 144.608 858.011 145.61C854.411 146.612 850.385 147.113 845.932 147.113C841.924 147.113 837.972 146.594 834.075 145.555C830.179 144.479 826.635 142.864 823.443 140.712C820.289 138.56 817.766 135.813 815.873 132.474C813.98 129.134 813.034 125.182 813.034 120.617H829.789C829.789 123.141 830.179 125.274 830.958 127.019C831.737 128.763 832.832 130.173 834.242 131.249C835.689 132.325 837.396 133.104 839.363 133.587C841.367 134.069 843.557 134.311 845.932 134.311C848.826 134.311 851.201 133.902 853.057 133.086C854.949 132.27 856.341 131.138 857.231 129.69C858.159 128.243 858.623 126.61 858.623 124.792ZM922.915 64.9531V146H906.271V64.9531H922.915ZM947.853 64.9531V78.0342H881.724V64.9531H947.853ZM1002.12 64.9531H1018.77V118.502C1018.77 124.736 1017.43 129.987 1014.76 134.255C1012.13 138.522 1008.47 141.732 1003.79 143.885C999.156 146.037 993.812 147.113 987.764 147.113C981.715 147.113 976.334 146.037 971.621 143.885C966.945 141.732 963.271 138.522 960.6 134.255C957.965 129.987 956.647 124.736 956.647 118.502V64.9531H973.347V118.502C973.347 122.139 973.922 125.107 975.072 127.408C976.223 129.709 977.874 131.397 980.026 132.474C982.216 133.55 984.795 134.088 987.764 134.088C990.807 134.088 993.386 133.55 995.501 132.474C997.653 131.397 999.286 129.709 1000.4 127.408C1001.55 125.107 1002.12 122.139 1002.12 118.502V64.9531ZM1057.4 146H1039.75L1039.87 132.975H1057.4C1061.78 132.975 1065.47 131.991 1068.48 130.024C1071.48 128.021 1073.75 125.107 1075.27 121.285C1076.83 117.463 1077.61 112.843 1077.61 107.425V103.473C1077.61 99.3164 1077.16 95.6611 1076.27 92.5068C1075.42 89.3525 1074.14 86.6992 1072.43 84.5469C1070.72 82.3945 1068.62 80.7803 1066.14 79.7041C1063.65 78.5908 1060.79 78.0342 1057.57 78.0342H1039.42V64.9531H1057.57C1062.98 64.9531 1067.94 65.8809 1072.43 67.7363C1076.96 69.5547 1080.87 72.1709 1084.17 75.585C1087.48 78.999 1090.02 83.0811 1091.8 87.8311C1093.62 92.5439 1094.53 97.7949 1094.53 103.584V107.425C1094.53 113.177 1093.62 118.428 1091.8 123.178C1090.02 127.928 1087.48 132.01 1084.17 135.424C1080.91 138.801 1076.99 141.417 1072.43 143.272C1067.9 145.091 1062.89 146 1057.4 146ZM1049.22 64.9531V146H1032.52V64.9531H1049.22ZM1124.42 64.9531V146H1107.78V64.9531H1124.42ZM1206.63 103.584V107.425C1206.63 113.585 1205.8 119.114 1204.13 124.013C1202.46 128.911 1200.1 133.086 1197.06 136.537C1194.02 139.951 1190.38 142.567 1186.15 144.386C1181.96 146.204 1177.3 147.113 1172.18 147.113C1167.09 147.113 1162.44 146.204 1158.21 144.386C1154.01 142.567 1150.38 139.951 1147.3 136.537C1144.22 133.086 1141.82 128.911 1140.12 124.013C1138.45 119.114 1137.61 113.585 1137.61 107.425V103.584C1137.61 97.3867 1138.45 91.8574 1140.12 86.9961C1141.79 82.0977 1144.14 77.9229 1147.19 74.4717C1150.27 71.0205 1153.9 68.3857 1158.1 66.5674C1162.33 64.749 1166.98 63.8398 1172.07 63.8398C1177.19 63.8398 1181.85 64.749 1186.04 66.5674C1190.27 68.3857 1193.91 71.0205 1196.95 74.4717C1200.03 77.9229 1202.4 82.0977 1204.07 86.9961C1205.78 91.8574 1206.63 97.3867 1206.63 103.584ZM1189.77 107.425V103.473C1189.77 99.168 1189.38 95.3828 1188.6 92.1172C1187.82 88.8516 1186.67 86.1055 1185.15 83.8789C1183.63 81.6523 1181.77 79.9824 1179.58 78.8691C1177.39 77.7188 1174.89 77.1436 1172.07 77.1436C1169.25 77.1436 1166.74 77.7188 1164.55 78.8691C1162.4 79.9824 1160.56 81.6523 1159.04 83.8789C1157.56 86.1055 1156.43 88.8516 1155.65 92.1172C1154.87 95.3828 1154.48 99.168 1154.48 103.473V107.425C1154.48 111.692 1154.87 115.478 1155.65 118.78C1156.43 122.046 1157.58 124.811 1159.1 127.074C1160.62 129.301 1162.47 130.989 1164.66 132.14C1166.85 133.29 1169.36 133.865 1172.18 133.865C1175 133.865 1177.5 133.29 1179.69 132.14C1181.88 130.989 1183.72 129.301 1185.2 127.074C1186.69 124.811 1187.82 122.046 1188.6 118.78C1189.38 115.478 1189.77 111.692 1189.77 107.425Z" fill="#6666FF"/>
<path fill-rule="evenodd" clip-rule="evenodd" d="M59.0377 0L36.5742 101.196L87.8754 134.122L114.999 92.9752L59.0377 0Z" fill="#6666FF"/>
<path fill-rule="evenodd" clip-rule="evenodd" d="M59.0382 0L0 85.9416L6.55003 134.122L36.5746 101.196L59.0382 0Z" fill="black"/>
<path fill-rule="evenodd" clip-rule="evenodd" d="M6.5498 134.122L36.5744 101.196L87.8756 134.122L59.0379 219.624L6.5498 134.122Z" fill="#4D4D4D"/>
<path fill-rule="evenodd" clip-rule="evenodd" d="M87.8777 134.121L115.001 92.9749V120.318L59.04 219.623L87.8777 134.121Z" fill="black"/>
</svg>
