<svg width="1215" height="220" viewBox="0 0 1215 220" fill="none" xmlns="http://www.w3.org/2000/svg">
<path d="M182.809 174.562V203H179.098V174.562H182.809ZM191.949 174.562V177.648H169.977V174.562H191.949ZM206.676 198.117V181.867H210.309V203H206.852L206.676 198.117ZM207.359 193.664L208.863 193.625C208.863 195.031 208.714 196.333 208.414 197.531C208.128 198.716 207.659 199.745 207.008 200.617C206.357 201.49 205.504 202.173 204.449 202.668C203.395 203.15 202.112 203.391 200.602 203.391C199.573 203.391 198.629 203.241 197.77 202.941C196.923 202.642 196.194 202.18 195.582 201.555C194.97 200.93 194.495 200.116 194.156 199.113C193.831 198.111 193.668 196.906 193.668 195.5V181.867H197.281V195.539C197.281 196.49 197.385 197.277 197.594 197.902C197.815 198.514 198.108 199.003 198.473 199.367C198.85 199.719 199.267 199.966 199.723 200.109C200.191 200.253 200.673 200.324 201.168 200.324C202.704 200.324 203.922 200.031 204.82 199.445C205.719 198.846 206.363 198.046 206.754 197.043C207.158 196.027 207.359 194.901 207.359 193.664ZM219.43 185.188V203H215.816V181.867H219.332L219.43 185.188ZM226.031 181.75L226.012 185.109C225.712 185.044 225.426 185.005 225.152 184.992C224.892 184.966 224.592 184.953 224.254 184.953C223.421 184.953 222.685 185.083 222.047 185.344C221.409 185.604 220.868 185.969 220.426 186.438C219.983 186.906 219.632 187.466 219.371 188.117C219.124 188.755 218.961 189.458 218.883 190.227L217.867 190.812C217.867 189.536 217.991 188.339 218.238 187.219C218.499 186.099 218.896 185.109 219.43 184.25C219.964 183.378 220.641 182.701 221.461 182.219C222.294 181.724 223.284 181.477 224.43 181.477C224.69 181.477 224.99 181.509 225.328 181.574C225.667 181.626 225.901 181.685 226.031 181.75ZM232.984 186.379V203H229.371V181.867H232.789L232.984 186.379ZM232.125 191.633L230.621 191.574C230.634 190.129 230.849 188.794 231.266 187.57C231.682 186.333 232.268 185.259 233.023 184.348C233.779 183.436 234.677 182.733 235.719 182.238C236.773 181.73 237.939 181.477 239.215 181.477C240.257 181.477 241.194 181.62 242.027 181.906C242.861 182.18 243.57 182.622 244.156 183.234C244.755 183.846 245.211 184.641 245.523 185.617C245.836 186.581 245.992 187.759 245.992 189.152V203H242.359V189.113C242.359 188.007 242.197 187.121 241.871 186.457C241.546 185.78 241.07 185.292 240.445 184.992C239.82 184.68 239.052 184.523 238.141 184.523C237.242 184.523 236.422 184.712 235.68 185.09C234.951 185.467 234.319 185.988 233.785 186.652C233.264 187.316 232.854 188.078 232.555 188.938C232.268 189.784 232.125 190.682 232.125 191.633ZM255.406 181.867V203H251.773V181.867H255.406ZM251.5 176.262C251.5 175.676 251.676 175.181 252.027 174.777C252.392 174.374 252.926 174.172 253.629 174.172C254.319 174.172 254.846 174.374 255.211 174.777C255.589 175.181 255.777 175.676 255.777 176.262C255.777 176.822 255.589 177.303 255.211 177.707C254.846 178.098 254.319 178.293 253.629 178.293C252.926 178.293 252.392 178.098 252.027 177.707C251.676 177.303 251.5 176.822 251.5 176.262ZM264.82 186.379V203H261.207V181.867H264.625L264.82 186.379ZM263.961 191.633L262.457 191.574C262.47 190.129 262.685 188.794 263.102 187.57C263.518 186.333 264.104 185.259 264.859 184.348C265.615 183.436 266.513 182.733 267.555 182.238C268.609 181.73 269.775 181.477 271.051 181.477C272.092 181.477 273.03 181.62 273.863 181.906C274.697 182.18 275.406 182.622 275.992 183.234C276.591 183.846 277.047 184.641 277.359 185.617C277.672 186.581 277.828 187.759 277.828 189.152V203H274.195V189.113C274.195 188.007 274.033 187.121 273.707 186.457C273.382 185.78 272.906 185.292 272.281 184.992C271.656 184.68 270.888 184.523 269.977 184.523C269.078 184.523 268.258 184.712 267.516 185.09C266.786 185.467 266.155 185.988 265.621 186.652C265.1 187.316 264.69 188.078 264.391 188.938C264.104 189.784 263.961 190.682 263.961 191.633ZM297.008 181.867H300.289V202.551C300.289 204.413 299.911 206.001 299.156 207.316C298.401 208.632 297.346 209.628 295.992 210.305C294.651 210.995 293.102 211.34 291.344 211.34C290.615 211.34 289.755 211.223 288.766 210.988C287.789 210.767 286.826 210.383 285.875 209.836C284.938 209.302 284.15 208.579 283.512 207.668L285.406 205.52C286.292 206.587 287.216 207.329 288.18 207.746C289.156 208.163 290.12 208.371 291.07 208.371C292.216 208.371 293.206 208.156 294.039 207.727C294.872 207.297 295.517 206.659 295.973 205.812C296.441 204.979 296.676 203.951 296.676 202.727V186.516L297.008 181.867ZM282.457 192.668V192.258C282.457 190.643 282.646 189.178 283.023 187.863C283.414 186.535 283.967 185.396 284.684 184.445C285.413 183.495 286.292 182.766 287.32 182.258C288.349 181.737 289.508 181.477 290.797 181.477C292.125 181.477 293.284 181.711 294.273 182.18C295.276 182.635 296.122 183.306 296.812 184.191C297.516 185.064 298.069 186.118 298.473 187.355C298.876 188.592 299.156 189.992 299.312 191.555V193.352C299.169 194.901 298.889 196.294 298.473 197.531C298.069 198.768 297.516 199.823 296.812 200.695C296.122 201.568 295.276 202.238 294.273 202.707C293.271 203.163 292.099 203.391 290.758 203.391C289.495 203.391 288.349 203.124 287.32 202.59C286.305 202.056 285.432 201.307 284.703 200.344C283.974 199.38 283.414 198.247 283.023 196.945C282.646 195.63 282.457 194.204 282.457 192.668ZM286.07 192.258V192.668C286.07 193.723 286.174 194.712 286.383 195.637C286.604 196.561 286.936 197.375 287.379 198.078C287.835 198.781 288.414 199.335 289.117 199.738C289.82 200.129 290.66 200.324 291.637 200.324C292.835 200.324 293.824 200.07 294.605 199.562C295.387 199.055 296.005 198.384 296.461 197.551C296.93 196.717 297.294 195.812 297.555 194.836V190.129C297.411 189.413 297.19 188.723 296.891 188.059C296.604 187.382 296.227 186.783 295.758 186.262C295.302 185.728 294.736 185.305 294.059 184.992C293.382 184.68 292.587 184.523 291.676 184.523C290.686 184.523 289.833 184.732 289.117 185.148C288.414 185.552 287.835 186.112 287.379 186.828C286.936 187.531 286.604 188.352 286.383 189.289C286.174 190.214 286.07 191.203 286.07 192.258ZM321.637 200.812L327.516 181.867H331.383L322.906 206.262C322.711 206.783 322.451 207.342 322.125 207.941C321.812 208.553 321.409 209.133 320.914 209.68C320.419 210.227 319.82 210.669 319.117 211.008C318.427 211.359 317.6 211.535 316.637 211.535C316.35 211.535 315.986 211.496 315.543 211.418C315.1 211.34 314.788 211.275 314.605 211.223L314.586 208.293C314.69 208.306 314.853 208.319 315.074 208.332C315.309 208.358 315.471 208.371 315.562 208.371C316.383 208.371 317.079 208.26 317.652 208.039C318.225 207.831 318.707 207.473 319.098 206.965C319.501 206.47 319.846 205.786 320.133 204.914L321.637 200.812ZM317.32 181.867L322.809 198.273L323.746 202.082L321.148 203.41L313.375 181.867H317.32ZM333.375 192.668V192.219C333.375 190.695 333.596 189.283 334.039 187.98C334.482 186.665 335.12 185.526 335.953 184.562C336.786 183.586 337.796 182.831 338.98 182.297C340.165 181.75 341.493 181.477 342.965 181.477C344.449 181.477 345.784 181.75 346.969 182.297C348.167 182.831 349.182 183.586 350.016 184.562C350.862 185.526 351.507 186.665 351.949 187.98C352.392 189.283 352.613 190.695 352.613 192.219V192.668C352.613 194.191 352.392 195.604 351.949 196.906C351.507 198.208 350.862 199.348 350.016 200.324C349.182 201.288 348.173 202.043 346.988 202.59C345.816 203.124 344.488 203.391 343.004 203.391C341.52 203.391 340.185 203.124 339 202.59C337.815 202.043 336.799 201.288 335.953 200.324C335.12 199.348 334.482 198.208 334.039 196.906C333.596 195.604 333.375 194.191 333.375 192.668ZM336.988 192.219V192.668C336.988 193.723 337.112 194.719 337.359 195.656C337.607 196.581 337.978 197.401 338.473 198.117C338.98 198.833 339.612 199.4 340.367 199.816C341.122 200.22 342.001 200.422 343.004 200.422C343.993 200.422 344.859 200.22 345.602 199.816C346.357 199.4 346.982 198.833 347.477 198.117C347.971 197.401 348.342 196.581 348.59 195.656C348.85 194.719 348.98 193.723 348.98 192.668V192.219C348.98 191.177 348.85 190.194 348.59 189.27C348.342 188.332 347.965 187.505 347.457 186.789C346.962 186.06 346.337 185.487 345.582 185.07C344.84 184.654 343.967 184.445 342.965 184.445C341.975 184.445 341.103 184.654 340.348 185.07C339.605 185.487 338.98 186.06 338.473 186.789C337.978 187.505 337.607 188.332 337.359 189.27C337.112 190.194 336.988 191.177 336.988 192.219ZM370.074 198.117V181.867H373.707V203H370.25L370.074 198.117ZM370.758 193.664L372.262 193.625C372.262 195.031 372.112 196.333 371.812 197.531C371.526 198.716 371.057 199.745 370.406 200.617C369.755 201.49 368.902 202.173 367.848 202.668C366.793 203.15 365.51 203.391 364 203.391C362.971 203.391 362.027 203.241 361.168 202.941C360.322 202.642 359.592 202.18 358.98 201.555C358.368 200.93 357.893 200.116 357.555 199.113C357.229 198.111 357.066 196.906 357.066 195.5V181.867H360.68V195.539C360.68 196.49 360.784 197.277 360.992 197.902C361.214 198.514 361.507 199.003 361.871 199.367C362.249 199.719 362.665 199.966 363.121 200.109C363.59 200.253 364.072 200.324 364.566 200.324C366.103 200.324 367.32 200.031 368.219 199.445C369.117 198.846 369.762 198.046 370.152 197.043C370.556 196.027 370.758 194.901 370.758 193.664ZM382.828 185.188V203H379.215V181.867H382.73L382.828 185.188ZM389.43 181.75L389.41 185.109C389.111 185.044 388.824 185.005 388.551 184.992C388.29 184.966 387.991 184.953 387.652 184.953C386.819 184.953 386.083 185.083 385.445 185.344C384.807 185.604 384.267 185.969 383.824 186.438C383.382 186.906 383.03 187.466 382.77 188.117C382.522 188.755 382.359 189.458 382.281 190.227L381.266 190.812C381.266 189.536 381.389 188.339 381.637 187.219C381.897 186.099 382.294 185.109 382.828 184.25C383.362 183.378 384.039 182.701 384.859 182.219C385.693 181.724 386.682 181.477 387.828 181.477C388.089 181.477 388.388 181.509 388.727 181.574C389.065 181.626 389.299 181.685 389.43 181.75ZM411.461 203.391C409.99 203.391 408.655 203.143 407.457 202.648C406.272 202.141 405.25 201.431 404.391 200.52C403.544 199.608 402.893 198.527 402.438 197.277C401.982 196.027 401.754 194.66 401.754 193.176V192.355C401.754 190.637 402.008 189.107 402.516 187.766C403.023 186.411 403.714 185.266 404.586 184.328C405.458 183.391 406.448 182.681 407.555 182.199C408.661 181.717 409.807 181.477 410.992 181.477C412.503 181.477 413.805 181.737 414.898 182.258C416.005 182.779 416.91 183.508 417.613 184.445C418.316 185.37 418.837 186.464 419.176 187.727C419.514 188.977 419.684 190.344 419.684 191.828V193.449H403.902V190.5H416.07V190.227C416.018 189.289 415.823 188.378 415.484 187.492C415.159 186.607 414.638 185.878 413.922 185.305C413.206 184.732 412.229 184.445 410.992 184.445C410.172 184.445 409.417 184.621 408.727 184.973C408.036 185.311 407.444 185.819 406.949 186.496C406.454 187.173 406.07 188 405.797 188.977C405.523 189.953 405.387 191.079 405.387 192.355V193.176C405.387 194.178 405.523 195.122 405.797 196.008C406.083 196.88 406.493 197.648 407.027 198.312C407.574 198.977 408.232 199.497 409 199.875C409.781 200.253 410.667 200.441 411.656 200.441C412.932 200.441 414.013 200.181 414.898 199.66C415.784 199.139 416.559 198.443 417.223 197.57L419.41 199.309C418.954 199.999 418.375 200.656 417.672 201.281C416.969 201.906 416.103 202.414 415.074 202.805C414.059 203.195 412.854 203.391 411.461 203.391ZM427.496 186.066V203H423.863V181.867H427.301L427.496 186.066ZM426.754 191.633L425.074 191.574C425.087 190.129 425.276 188.794 425.641 187.57C426.005 186.333 426.546 185.259 427.262 184.348C427.978 183.436 428.87 182.733 429.938 182.238C431.005 181.73 432.242 181.477 433.648 181.477C434.638 181.477 435.549 181.62 436.383 181.906C437.216 182.18 437.939 182.616 438.551 183.215C439.163 183.814 439.638 184.582 439.977 185.52C440.315 186.457 440.484 187.59 440.484 188.918V203H436.871V189.094C436.871 187.987 436.682 187.102 436.305 186.438C435.94 185.773 435.419 185.292 434.742 184.992C434.065 184.68 433.271 184.523 432.359 184.523C431.292 184.523 430.4 184.712 429.684 185.09C428.967 185.467 428.395 185.988 427.965 186.652C427.535 187.316 427.223 188.078 427.027 188.938C426.845 189.784 426.754 190.682 426.754 191.633ZM440.445 189.641L438.023 190.383C438.036 189.224 438.225 188.111 438.59 187.043C438.967 185.975 439.508 185.025 440.211 184.191C440.927 183.358 441.806 182.701 442.848 182.219C443.889 181.724 445.081 181.477 446.422 181.477C447.555 181.477 448.557 181.626 449.43 181.926C450.315 182.225 451.057 182.688 451.656 183.312C452.268 183.924 452.73 184.712 453.043 185.676C453.355 186.639 453.512 187.785 453.512 189.113V203H449.879V189.074C449.879 187.889 449.69 186.971 449.312 186.32C448.948 185.656 448.427 185.194 447.75 184.934C447.086 184.66 446.292 184.523 445.367 184.523C444.573 184.523 443.87 184.66 443.258 184.934C442.646 185.207 442.132 185.585 441.715 186.066C441.298 186.535 440.979 187.076 440.758 187.688C440.549 188.299 440.445 188.951 440.445 189.641ZM458.961 173H462.594V198.898L462.281 203H458.961V173ZM476.871 192.258V192.668C476.871 194.204 476.689 195.63 476.324 196.945C475.96 198.247 475.426 199.38 474.723 200.344C474.02 201.307 473.16 202.056 472.145 202.59C471.129 203.124 469.964 203.391 468.648 203.391C467.307 203.391 466.129 203.163 465.113 202.707C464.111 202.238 463.264 201.568 462.574 200.695C461.884 199.823 461.331 198.768 460.914 197.531C460.51 196.294 460.23 194.901 460.074 193.352V191.555C460.23 189.992 460.51 188.592 460.914 187.355C461.331 186.118 461.884 185.064 462.574 184.191C463.264 183.306 464.111 182.635 465.113 182.18C466.116 181.711 467.281 181.477 468.609 181.477C469.938 181.477 471.116 181.737 472.145 182.258C473.173 182.766 474.033 183.495 474.723 184.445C475.426 185.396 475.96 186.535 476.324 187.863C476.689 189.178 476.871 190.643 476.871 192.258ZM473.238 192.668V192.258C473.238 191.203 473.141 190.214 472.945 189.289C472.75 188.352 472.438 187.531 472.008 186.828C471.578 186.112 471.012 185.552 470.309 185.148C469.605 184.732 468.74 184.523 467.711 184.523C466.799 184.523 466.005 184.68 465.328 184.992C464.664 185.305 464.098 185.728 463.629 186.262C463.16 186.783 462.776 187.382 462.477 188.059C462.19 188.723 461.975 189.413 461.832 190.129V194.836C462.04 195.747 462.379 196.626 462.848 197.473C463.329 198.306 463.967 198.99 464.762 199.523C465.569 200.057 466.565 200.324 467.75 200.324C468.727 200.324 469.56 200.129 470.25 199.738C470.953 199.335 471.52 198.781 471.949 198.078C472.392 197.375 472.717 196.561 472.926 195.637C473.134 194.712 473.238 193.723 473.238 192.668ZM490.211 203.391C488.74 203.391 487.405 203.143 486.207 202.648C485.022 202.141 484 201.431 483.141 200.52C482.294 199.608 481.643 198.527 481.188 197.277C480.732 196.027 480.504 194.66 480.504 193.176V192.355C480.504 190.637 480.758 189.107 481.266 187.766C481.773 186.411 482.464 185.266 483.336 184.328C484.208 183.391 485.198 182.681 486.305 182.199C487.411 181.717 488.557 181.477 489.742 181.477C491.253 181.477 492.555 181.737 493.648 182.258C494.755 182.779 495.66 183.508 496.363 184.445C497.066 185.37 497.587 186.464 497.926 187.727C498.264 188.977 498.434 190.344 498.434 191.828V193.449H482.652V190.5H494.82V190.227C494.768 189.289 494.573 188.378 494.234 187.492C493.909 186.607 493.388 185.878 492.672 185.305C491.956 184.732 490.979 184.445 489.742 184.445C488.922 184.445 488.167 184.621 487.477 184.973C486.786 185.311 486.194 185.819 485.699 186.496C485.204 187.173 484.82 188 484.547 188.977C484.273 189.953 484.137 191.079 484.137 192.355V193.176C484.137 194.178 484.273 195.122 484.547 196.008C484.833 196.88 485.243 197.648 485.777 198.312C486.324 198.977 486.982 199.497 487.75 199.875C488.531 200.253 489.417 200.441 490.406 200.441C491.682 200.441 492.763 200.181 493.648 199.66C494.534 199.139 495.309 198.443 495.973 197.57L498.16 199.309C497.704 199.999 497.125 200.656 496.422 201.281C495.719 201.906 494.853 202.414 493.824 202.805C492.809 203.195 491.604 203.391 490.211 203.391ZM515.973 198.898V173H519.605V203H516.285L515.973 198.898ZM501.754 192.668V192.258C501.754 190.643 501.949 189.178 502.34 187.863C502.743 186.535 503.31 185.396 504.039 184.445C504.781 183.495 505.66 182.766 506.676 182.258C507.704 181.737 508.85 181.477 510.113 181.477C511.441 181.477 512.6 181.711 513.59 182.18C514.592 182.635 515.439 183.306 516.129 184.191C516.832 185.064 517.385 186.118 517.789 187.355C518.193 188.592 518.473 189.992 518.629 191.555V193.352C518.486 194.901 518.206 196.294 517.789 197.531C517.385 198.768 516.832 199.823 516.129 200.695C515.439 201.568 514.592 202.238 513.59 202.707C512.587 203.163 511.415 203.391 510.074 203.391C508.837 203.391 507.704 203.124 506.676 202.59C505.66 202.056 504.781 201.307 504.039 200.344C503.31 199.38 502.743 198.247 502.34 196.945C501.949 195.63 501.754 194.204 501.754 192.668ZM505.387 192.258V192.668C505.387 193.723 505.491 194.712 505.699 195.637C505.921 196.561 506.259 197.375 506.715 198.078C507.171 198.781 507.75 199.335 508.453 199.738C509.156 200.129 509.996 200.324 510.973 200.324C512.171 200.324 513.154 200.07 513.922 199.562C514.703 199.055 515.328 198.384 515.797 197.551C516.266 196.717 516.63 195.812 516.891 194.836V190.129C516.734 189.413 516.507 188.723 516.207 188.059C515.921 187.382 515.543 186.783 515.074 186.262C514.618 185.728 514.052 185.305 513.375 184.992C512.711 184.68 511.923 184.523 511.012 184.523C510.022 184.523 509.169 184.732 508.453 185.148C507.75 185.552 507.171 186.112 506.715 186.828C506.259 187.531 505.921 188.352 505.699 189.289C505.491 190.214 505.387 191.203 505.387 192.258ZM538.551 198.898V173H542.184V203H538.863L538.551 198.898ZM524.332 192.668V192.258C524.332 190.643 524.527 189.178 524.918 187.863C525.322 186.535 525.888 185.396 526.617 184.445C527.359 183.495 528.238 182.766 529.254 182.258C530.283 181.737 531.428 181.477 532.691 181.477C534.02 181.477 535.178 181.711 536.168 182.18C537.171 182.635 538.017 183.306 538.707 184.191C539.41 185.064 539.964 186.118 540.367 187.355C540.771 188.592 541.051 189.992 541.207 191.555V193.352C541.064 194.901 540.784 196.294 540.367 197.531C539.964 198.768 539.41 199.823 538.707 200.695C538.017 201.568 537.171 202.238 536.168 202.707C535.165 203.163 533.993 203.391 532.652 203.391C531.415 203.391 530.283 203.124 529.254 202.59C528.238 202.056 527.359 201.307 526.617 200.344C525.888 199.38 525.322 198.247 524.918 196.945C524.527 195.63 524.332 194.204 524.332 192.668ZM527.965 192.258V192.668C527.965 193.723 528.069 194.712 528.277 195.637C528.499 196.561 528.837 197.375 529.293 198.078C529.749 198.781 530.328 199.335 531.031 199.738C531.734 200.129 532.574 200.324 533.551 200.324C534.749 200.324 535.732 200.07 536.5 199.562C537.281 199.055 537.906 198.384 538.375 197.551C538.844 196.717 539.208 195.812 539.469 194.836V190.129C539.312 189.413 539.085 188.723 538.785 188.059C538.499 187.382 538.121 186.783 537.652 186.262C537.197 185.728 536.63 185.305 535.953 184.992C535.289 184.68 534.501 184.523 533.59 184.523C532.6 184.523 531.747 184.732 531.031 185.148C530.328 185.552 529.749 186.112 529.293 186.828C528.837 187.531 528.499 188.352 528.277 189.289C528.069 190.214 527.965 191.203 527.965 192.258ZM551.734 181.867V203H548.102V181.867H551.734ZM547.828 176.262C547.828 175.676 548.004 175.181 548.355 174.777C548.72 174.374 549.254 174.172 549.957 174.172C550.647 174.172 551.174 174.374 551.539 174.777C551.917 175.181 552.105 175.676 552.105 176.262C552.105 176.822 551.917 177.303 551.539 177.707C551.174 178.098 550.647 178.293 549.957 178.293C549.254 178.293 548.72 178.098 548.355 177.707C548.004 177.303 547.828 176.822 547.828 176.262ZM561.148 186.379V203H557.535V181.867H560.953L561.148 186.379ZM560.289 191.633L558.785 191.574C558.798 190.129 559.013 188.794 559.43 187.57C559.846 186.333 560.432 185.259 561.188 184.348C561.943 183.436 562.841 182.733 563.883 182.238C564.938 181.73 566.103 181.477 567.379 181.477C568.421 181.477 569.358 181.62 570.191 181.906C571.025 182.18 571.734 182.622 572.32 183.234C572.919 183.846 573.375 184.641 573.688 185.617C574 186.581 574.156 187.759 574.156 189.152V203H570.523V189.113C570.523 188.007 570.361 187.121 570.035 186.457C569.71 185.78 569.234 185.292 568.609 184.992C567.984 184.68 567.216 184.523 566.305 184.523C565.406 184.523 564.586 184.712 563.844 185.09C563.115 185.467 562.483 185.988 561.949 186.652C561.428 187.316 561.018 188.078 560.719 188.938C560.432 189.784 560.289 190.682 560.289 191.633ZM593.336 181.867H596.617V202.551C596.617 204.413 596.24 206.001 595.484 207.316C594.729 208.632 593.674 209.628 592.32 210.305C590.979 210.995 589.43 211.34 587.672 211.34C586.943 211.34 586.083 211.223 585.094 210.988C584.117 210.767 583.154 210.383 582.203 209.836C581.266 209.302 580.478 208.579 579.84 207.668L581.734 205.52C582.62 206.587 583.544 207.329 584.508 207.746C585.484 208.163 586.448 208.371 587.398 208.371C588.544 208.371 589.534 208.156 590.367 207.727C591.201 207.297 591.845 206.659 592.301 205.812C592.77 204.979 593.004 203.951 593.004 202.727V186.516L593.336 181.867ZM578.785 192.668V192.258C578.785 190.643 578.974 189.178 579.352 187.863C579.742 186.535 580.296 185.396 581.012 184.445C581.741 183.495 582.62 182.766 583.648 182.258C584.677 181.737 585.836 181.477 587.125 181.477C588.453 181.477 589.612 181.711 590.602 182.18C591.604 182.635 592.451 183.306 593.141 184.191C593.844 185.064 594.397 186.118 594.801 187.355C595.204 188.592 595.484 189.992 595.641 191.555V193.352C595.497 194.901 595.217 196.294 594.801 197.531C594.397 198.768 593.844 199.823 593.141 200.695C592.451 201.568 591.604 202.238 590.602 202.707C589.599 203.163 588.427 203.391 587.086 203.391C585.823 203.391 584.677 203.124 583.648 202.59C582.633 202.056 581.76 201.307 581.031 200.344C580.302 199.38 579.742 198.247 579.352 196.945C578.974 195.63 578.785 194.204 578.785 192.668ZM582.398 192.258V192.668C582.398 193.723 582.503 194.712 582.711 195.637C582.932 196.561 583.264 197.375 583.707 198.078C584.163 198.781 584.742 199.335 585.445 199.738C586.148 200.129 586.988 200.324 587.965 200.324C589.163 200.324 590.152 200.07 590.934 199.562C591.715 199.055 592.333 198.384 592.789 197.551C593.258 196.717 593.622 195.812 593.883 194.836V190.129C593.74 189.413 593.518 188.723 593.219 188.059C592.932 187.382 592.555 186.783 592.086 186.262C591.63 185.728 591.064 185.305 590.387 184.992C589.71 184.68 588.915 184.523 588.004 184.523C587.014 184.523 586.161 184.732 585.445 185.148C584.742 185.552 584.163 186.112 583.707 186.828C583.264 187.531 582.932 188.352 582.711 189.289C582.503 190.214 582.398 191.203 582.398 192.258ZM615.621 186.066V203H611.988V181.867H615.426L615.621 186.066ZM614.879 191.633L613.199 191.574C613.212 190.129 613.401 188.794 613.766 187.57C614.13 186.333 614.671 185.259 615.387 184.348C616.103 183.436 616.995 182.733 618.062 182.238C619.13 181.73 620.367 181.477 621.773 181.477C622.763 181.477 623.674 181.62 624.508 181.906C625.341 182.18 626.064 182.616 626.676 183.215C627.288 183.814 627.763 184.582 628.102 185.52C628.44 186.457 628.609 187.59 628.609 188.918V203H624.996V189.094C624.996 187.987 624.807 187.102 624.43 186.438C624.065 185.773 623.544 185.292 622.867 184.992C622.19 184.68 621.396 184.523 620.484 184.523C619.417 184.523 618.525 184.712 617.809 185.09C617.092 185.467 616.52 185.988 616.09 186.652C615.66 187.316 615.348 188.078 615.152 188.938C614.97 189.784 614.879 190.682 614.879 191.633ZM628.57 189.641L626.148 190.383C626.161 189.224 626.35 188.111 626.715 187.043C627.092 185.975 627.633 185.025 628.336 184.191C629.052 183.358 629.931 182.701 630.973 182.219C632.014 181.724 633.206 181.477 634.547 181.477C635.68 181.477 636.682 181.626 637.555 181.926C638.44 182.225 639.182 182.688 639.781 183.312C640.393 183.924 640.855 184.712 641.168 185.676C641.48 186.639 641.637 187.785 641.637 189.113V203H638.004V189.074C638.004 187.889 637.815 186.971 637.438 186.32C637.073 185.656 636.552 185.194 635.875 184.934C635.211 184.66 634.417 184.523 633.492 184.523C632.698 184.523 631.995 184.66 631.383 184.934C630.771 185.207 630.257 185.585 629.84 186.066C629.423 186.535 629.104 187.076 628.883 187.688C628.674 188.299 628.57 188.951 628.57 189.641ZM646.148 192.668V192.219C646.148 190.695 646.37 189.283 646.812 187.98C647.255 186.665 647.893 185.526 648.727 184.562C649.56 183.586 650.569 182.831 651.754 182.297C652.939 181.75 654.267 181.477 655.738 181.477C657.223 181.477 658.557 181.75 659.742 182.297C660.94 182.831 661.956 183.586 662.789 184.562C663.635 185.526 664.28 186.665 664.723 187.98C665.165 189.283 665.387 190.695 665.387 192.219V192.668C665.387 194.191 665.165 195.604 664.723 196.906C664.28 198.208 663.635 199.348 662.789 200.324C661.956 201.288 660.947 202.043 659.762 202.59C658.59 203.124 657.262 203.391 655.777 203.391C654.293 203.391 652.958 203.124 651.773 202.59C650.589 202.043 649.573 201.288 648.727 200.324C647.893 199.348 647.255 198.208 646.812 196.906C646.37 195.604 646.148 194.191 646.148 192.668ZM649.762 192.219V192.668C649.762 193.723 649.885 194.719 650.133 195.656C650.38 196.581 650.751 197.401 651.246 198.117C651.754 198.833 652.385 199.4 653.141 199.816C653.896 200.22 654.775 200.422 655.777 200.422C656.767 200.422 657.633 200.22 658.375 199.816C659.13 199.4 659.755 198.833 660.25 198.117C660.745 197.401 661.116 196.581 661.363 195.656C661.624 194.719 661.754 193.723 661.754 192.668V192.219C661.754 191.177 661.624 190.194 661.363 189.27C661.116 188.332 660.738 187.505 660.23 186.789C659.736 186.06 659.111 185.487 658.355 185.07C657.613 184.654 656.741 184.445 655.738 184.445C654.749 184.445 653.876 184.654 653.121 185.07C652.379 185.487 651.754 186.06 651.246 186.789C650.751 187.505 650.38 188.332 650.133 189.27C649.885 190.194 649.762 191.177 649.762 192.219ZM683.238 198.898V173H686.871V203H683.551L683.238 198.898ZM669.02 192.668V192.258C669.02 190.643 669.215 189.178 669.605 187.863C670.009 186.535 670.576 185.396 671.305 184.445C672.047 183.495 672.926 182.766 673.941 182.258C674.97 181.737 676.116 181.477 677.379 181.477C678.707 181.477 679.866 181.711 680.855 182.18C681.858 182.635 682.704 183.306 683.395 184.191C684.098 185.064 684.651 186.118 685.055 187.355C685.458 188.592 685.738 189.992 685.895 191.555V193.352C685.751 194.901 685.471 196.294 685.055 197.531C684.651 198.768 684.098 199.823 683.395 200.695C682.704 201.568 681.858 202.238 680.855 202.707C679.853 203.163 678.681 203.391 677.34 203.391C676.103 203.391 674.97 203.124 673.941 202.59C672.926 202.056 672.047 201.307 671.305 200.344C670.576 199.38 670.009 198.247 669.605 196.945C669.215 195.63 669.02 194.204 669.02 192.668ZM672.652 192.258V192.668C672.652 193.723 672.757 194.712 672.965 195.637C673.186 196.561 673.525 197.375 673.98 198.078C674.436 198.781 675.016 199.335 675.719 199.738C676.422 200.129 677.262 200.324 678.238 200.324C679.436 200.324 680.419 200.07 681.188 199.562C681.969 199.055 682.594 198.384 683.062 197.551C683.531 196.717 683.896 195.812 684.156 194.836V190.129C684 189.413 683.772 188.723 683.473 188.059C683.186 187.382 682.809 186.783 682.34 186.262C681.884 185.728 681.318 185.305 680.641 184.992C679.977 184.68 679.189 184.523 678.277 184.523C677.288 184.523 676.435 184.732 675.719 185.148C675.016 185.552 674.436 186.112 673.98 186.828C673.525 187.531 673.186 188.352 672.965 189.289C672.757 190.214 672.652 191.203 672.652 192.258ZM701.266 203.391C699.794 203.391 698.46 203.143 697.262 202.648C696.077 202.141 695.055 201.431 694.195 200.52C693.349 199.608 692.698 198.527 692.242 197.277C691.786 196.027 691.559 194.66 691.559 193.176V192.355C691.559 190.637 691.812 189.107 692.32 187.766C692.828 186.411 693.518 185.266 694.391 184.328C695.263 183.391 696.253 182.681 697.359 182.199C698.466 181.717 699.612 181.477 700.797 181.477C702.307 181.477 703.609 181.737 704.703 182.258C705.81 182.779 706.715 183.508 707.418 184.445C708.121 185.37 708.642 186.464 708.98 187.727C709.319 188.977 709.488 190.344 709.488 191.828V193.449H693.707V190.5H705.875V190.227C705.823 189.289 705.628 188.378 705.289 187.492C704.964 186.607 704.443 185.878 703.727 185.305C703.01 184.732 702.034 184.445 700.797 184.445C699.977 184.445 699.221 184.621 698.531 184.973C697.841 185.311 697.249 185.819 696.754 186.496C696.259 187.173 695.875 188 695.602 188.977C695.328 189.953 695.191 191.079 695.191 192.355V193.176C695.191 194.178 695.328 195.122 695.602 196.008C695.888 196.88 696.298 197.648 696.832 198.312C697.379 198.977 698.036 199.497 698.805 199.875C699.586 200.253 700.471 200.441 701.461 200.441C702.737 200.441 703.818 200.181 704.703 199.66C705.589 199.139 706.363 198.443 707.027 197.57L709.215 199.309C708.759 199.999 708.18 200.656 707.477 201.281C706.773 201.906 705.908 202.414 704.879 202.805C703.863 203.195 702.659 203.391 701.266 203.391ZM717.633 173V203H714V173H717.633ZM737.281 181.867V203H733.648V181.867H737.281ZM733.375 176.262C733.375 175.676 733.551 175.181 733.902 174.777C734.267 174.374 734.801 174.172 735.504 174.172C736.194 174.172 736.721 174.374 737.086 174.777C737.464 175.181 737.652 175.676 737.652 176.262C737.652 176.822 737.464 177.303 737.086 177.707C736.721 178.098 736.194 178.293 735.504 178.293C734.801 178.293 734.267 178.098 733.902 177.707C733.551 177.303 733.375 176.822 733.375 176.262ZM746.695 186.379V203H743.082V181.867H746.5L746.695 186.379ZM745.836 191.633L744.332 191.574C744.345 190.129 744.56 188.794 744.977 187.57C745.393 186.333 745.979 185.259 746.734 184.348C747.49 183.436 748.388 182.733 749.43 182.238C750.484 181.73 751.65 181.477 752.926 181.477C753.967 181.477 754.905 181.62 755.738 181.906C756.572 182.18 757.281 182.622 757.867 183.234C758.466 183.846 758.922 184.641 759.234 185.617C759.547 186.581 759.703 187.759 759.703 189.152V203H756.07V189.113C756.07 188.007 755.908 187.121 755.582 186.457C755.257 185.78 754.781 185.292 754.156 184.992C753.531 184.68 752.763 184.523 751.852 184.523C750.953 184.523 750.133 184.712 749.391 185.09C748.661 185.467 748.03 185.988 747.496 186.652C746.975 187.316 746.565 188.078 746.266 188.938C745.979 189.784 745.836 190.682 745.836 191.633ZM774.039 181.867V184.641H762.613V181.867H774.039ZM766.48 176.73H770.094V197.766C770.094 198.482 770.204 199.022 770.426 199.387C770.647 199.751 770.934 199.992 771.285 200.109C771.637 200.227 772.014 200.285 772.418 200.285C772.717 200.285 773.03 200.259 773.355 200.207C773.694 200.142 773.948 200.09 774.117 200.051L774.137 203C773.85 203.091 773.473 203.176 773.004 203.254C772.548 203.345 771.995 203.391 771.344 203.391C770.458 203.391 769.645 203.215 768.902 202.863C768.16 202.512 767.568 201.926 767.125 201.105C766.695 200.272 766.48 199.152 766.48 197.746V176.73ZM776.93 192.668V192.219C776.93 190.695 777.151 189.283 777.594 187.98C778.036 186.665 778.674 185.526 779.508 184.562C780.341 183.586 781.35 182.831 782.535 182.297C783.72 181.75 785.048 181.477 786.52 181.477C788.004 181.477 789.339 181.75 790.523 182.297C791.721 182.831 792.737 183.586 793.57 184.562C794.417 185.526 795.061 186.665 795.504 187.98C795.947 189.283 796.168 190.695 796.168 192.219V192.668C796.168 194.191 795.947 195.604 795.504 196.906C795.061 198.208 794.417 199.348 793.57 200.324C792.737 201.288 791.728 202.043 790.543 202.59C789.371 203.124 788.043 203.391 786.559 203.391C785.074 203.391 783.74 203.124 782.555 202.59C781.37 202.043 780.354 201.288 779.508 200.324C778.674 199.348 778.036 198.208 777.594 196.906C777.151 195.604 776.93 194.191 776.93 192.668ZM780.543 192.219V192.668C780.543 193.723 780.667 194.719 780.914 195.656C781.161 196.581 781.533 197.401 782.027 198.117C782.535 198.833 783.167 199.4 783.922 199.816C784.677 200.22 785.556 200.422 786.559 200.422C787.548 200.422 788.414 200.22 789.156 199.816C789.911 199.4 790.536 198.833 791.031 198.117C791.526 197.401 791.897 196.581 792.145 195.656C792.405 194.719 792.535 193.723 792.535 192.668V192.219C792.535 191.177 792.405 190.194 792.145 189.27C791.897 188.332 791.52 187.505 791.012 186.789C790.517 186.06 789.892 185.487 789.137 185.07C788.395 184.654 787.522 184.445 786.52 184.445C785.53 184.445 784.658 184.654 783.902 185.07C783.16 185.487 782.535 186.06 782.027 186.789C781.533 187.505 781.161 188.332 780.914 189.27C780.667 190.194 780.543 191.177 780.543 192.219ZM823.082 199.387V188.508C823.082 187.674 822.913 186.952 822.574 186.34C822.249 185.715 821.754 185.233 821.09 184.895C820.426 184.556 819.605 184.387 818.629 184.387C817.717 184.387 816.917 184.543 816.227 184.855C815.549 185.168 815.016 185.578 814.625 186.086C814.247 186.594 814.059 187.141 814.059 187.727H810.445C810.445 186.971 810.641 186.223 811.031 185.48C811.422 184.738 811.982 184.068 812.711 183.469C813.453 182.857 814.339 182.375 815.367 182.023C816.409 181.659 817.568 181.477 818.844 181.477C820.38 181.477 821.734 181.737 822.906 182.258C824.091 182.779 825.016 183.566 825.68 184.621C826.357 185.663 826.695 186.971 826.695 188.547V198.391C826.695 199.094 826.754 199.842 826.871 200.637C827.001 201.431 827.19 202.115 827.438 202.688V203H823.668C823.486 202.583 823.342 202.03 823.238 201.34C823.134 200.637 823.082 199.986 823.082 199.387ZM823.707 190.188L823.746 192.727H820.094C819.065 192.727 818.147 192.811 817.34 192.98C816.533 193.137 815.855 193.378 815.309 193.703C814.762 194.029 814.345 194.439 814.059 194.934C813.772 195.415 813.629 195.982 813.629 196.633C813.629 197.297 813.779 197.902 814.078 198.449C814.378 198.996 814.827 199.432 815.426 199.758C816.038 200.07 816.786 200.227 817.672 200.227C818.779 200.227 819.755 199.992 820.602 199.523C821.448 199.055 822.118 198.482 822.613 197.805C823.121 197.128 823.395 196.47 823.434 195.832L824.977 197.57C824.885 198.117 824.638 198.723 824.234 199.387C823.831 200.051 823.29 200.689 822.613 201.301C821.949 201.9 821.155 202.401 820.23 202.805C819.319 203.195 818.29 203.391 817.145 203.391C815.712 203.391 814.456 203.111 813.375 202.551C812.307 201.991 811.474 201.242 810.875 200.305C810.289 199.354 809.996 198.293 809.996 197.121C809.996 195.988 810.217 194.992 810.66 194.133C811.103 193.26 811.741 192.538 812.574 191.965C813.408 191.379 814.41 190.936 815.582 190.637C816.754 190.337 818.062 190.188 819.508 190.188H823.707ZM854.605 197.395C854.605 196.874 854.488 196.392 854.254 195.949C854.033 195.493 853.57 195.083 852.867 194.719C852.177 194.341 851.135 194.016 849.742 193.742C848.57 193.495 847.509 193.202 846.559 192.863C845.621 192.525 844.82 192.115 844.156 191.633C843.505 191.151 843.004 190.585 842.652 189.934C842.301 189.283 842.125 188.521 842.125 187.648C842.125 186.815 842.307 186.027 842.672 185.285C843.049 184.543 843.577 183.885 844.254 183.312C844.944 182.74 845.771 182.29 846.734 181.965C847.698 181.639 848.772 181.477 849.957 181.477C851.65 181.477 853.095 181.776 854.293 182.375C855.491 182.974 856.409 183.775 857.047 184.777C857.685 185.767 858.004 186.867 858.004 188.078H854.391C854.391 187.492 854.215 186.926 853.863 186.379C853.525 185.819 853.023 185.357 852.359 184.992C851.708 184.628 850.908 184.445 849.957 184.445C848.954 184.445 848.141 184.602 847.516 184.914C846.904 185.214 846.454 185.598 846.168 186.066C845.895 186.535 845.758 187.03 845.758 187.551C845.758 187.941 845.823 188.293 845.953 188.605C846.096 188.905 846.344 189.185 846.695 189.445C847.047 189.693 847.542 189.927 848.18 190.148C848.818 190.37 849.632 190.591 850.621 190.812C852.353 191.203 853.779 191.672 854.898 192.219C856.018 192.766 856.852 193.436 857.398 194.23C857.945 195.025 858.219 195.988 858.219 197.121C858.219 198.046 858.023 198.892 857.633 199.66C857.255 200.428 856.702 201.092 855.973 201.652C855.257 202.199 854.397 202.629 853.395 202.941C852.405 203.241 851.292 203.391 850.055 203.391C848.193 203.391 846.617 203.059 845.328 202.395C844.039 201.73 843.062 200.871 842.398 199.816C841.734 198.762 841.402 197.648 841.402 196.477H845.035C845.087 197.466 845.374 198.254 845.895 198.84C846.415 199.413 847.053 199.823 847.809 200.07C848.564 200.305 849.312 200.422 850.055 200.422C851.044 200.422 851.871 200.292 852.535 200.031C853.212 199.771 853.727 199.413 854.078 198.957C854.43 198.501 854.605 197.98 854.605 197.395ZM871.734 203.391C870.263 203.391 868.928 203.143 867.73 202.648C866.546 202.141 865.523 201.431 864.664 200.52C863.818 199.608 863.167 198.527 862.711 197.277C862.255 196.027 862.027 194.66 862.027 193.176V192.355C862.027 190.637 862.281 189.107 862.789 187.766C863.297 186.411 863.987 185.266 864.859 184.328C865.732 183.391 866.721 182.681 867.828 182.199C868.935 181.717 870.081 181.477 871.266 181.477C872.776 181.477 874.078 181.737 875.172 182.258C876.279 182.779 877.184 183.508 877.887 184.445C878.59 185.37 879.111 186.464 879.449 187.727C879.788 188.977 879.957 190.344 879.957 191.828V193.449H864.176V190.5H876.344V190.227C876.292 189.289 876.096 188.378 875.758 187.492C875.432 186.607 874.911 185.878 874.195 185.305C873.479 184.732 872.503 184.445 871.266 184.445C870.445 184.445 869.69 184.621 869 184.973C868.31 185.311 867.717 185.819 867.223 186.496C866.728 187.173 866.344 188 866.07 188.977C865.797 189.953 865.66 191.079 865.66 192.355V193.176C865.66 194.178 865.797 195.122 866.07 196.008C866.357 196.88 866.767 197.648 867.301 198.312C867.848 198.977 868.505 199.497 869.273 199.875C870.055 200.253 870.94 200.441 871.93 200.441C873.206 200.441 874.286 200.181 875.172 199.66C876.057 199.139 876.832 198.443 877.496 197.57L879.684 199.309C879.228 199.999 878.648 200.656 877.945 201.281C877.242 201.906 876.376 202.414 875.348 202.805C874.332 203.195 873.128 203.391 871.734 203.391ZM896.637 199.387V188.508C896.637 187.674 896.467 186.952 896.129 186.34C895.803 185.715 895.309 185.233 894.645 184.895C893.98 184.556 893.16 184.387 892.184 184.387C891.272 184.387 890.471 184.543 889.781 184.855C889.104 185.168 888.57 185.578 888.18 186.086C887.802 186.594 887.613 187.141 887.613 187.727H884C884 186.971 884.195 186.223 884.586 185.48C884.977 184.738 885.536 184.068 886.266 183.469C887.008 182.857 887.893 182.375 888.922 182.023C889.964 181.659 891.122 181.477 892.398 181.477C893.935 181.477 895.289 181.737 896.461 182.258C897.646 182.779 898.57 183.566 899.234 184.621C899.911 185.663 900.25 186.971 900.25 188.547V198.391C900.25 199.094 900.309 199.842 900.426 200.637C900.556 201.431 900.745 202.115 900.992 202.688V203H897.223C897.04 202.583 896.897 202.03 896.793 201.34C896.689 200.637 896.637 199.986 896.637 199.387ZM897.262 190.188L897.301 192.727H893.648C892.62 192.727 891.702 192.811 890.895 192.98C890.087 193.137 889.41 193.378 888.863 193.703C888.316 194.029 887.9 194.439 887.613 194.934C887.327 195.415 887.184 195.982 887.184 196.633C887.184 197.297 887.333 197.902 887.633 198.449C887.932 198.996 888.382 199.432 888.98 199.758C889.592 200.07 890.341 200.227 891.227 200.227C892.333 200.227 893.31 199.992 894.156 199.523C895.003 199.055 895.673 198.482 896.168 197.805C896.676 197.128 896.949 196.47 896.988 195.832L898.531 197.57C898.44 198.117 898.193 198.723 897.789 199.387C897.385 200.051 896.845 200.689 896.168 201.301C895.504 201.9 894.71 202.401 893.785 202.805C892.874 203.195 891.845 203.391 890.699 203.391C889.267 203.391 888.01 203.111 886.93 202.551C885.862 201.991 885.029 201.242 884.43 200.305C883.844 199.354 883.551 198.293 883.551 197.121C883.551 195.988 883.772 194.992 884.215 194.133C884.658 193.26 885.296 192.538 886.129 191.965C886.962 191.379 887.965 190.936 889.137 190.637C890.309 190.337 891.617 190.188 893.062 190.188H897.262ZM909.547 185.188V203H905.934V181.867H909.449L909.547 185.188ZM916.148 181.75L916.129 185.109C915.829 185.044 915.543 185.005 915.27 184.992C915.009 184.966 914.71 184.953 914.371 184.953C913.538 184.953 912.802 185.083 912.164 185.344C911.526 185.604 910.986 185.969 910.543 186.438C910.1 186.906 909.749 187.466 909.488 188.117C909.241 188.755 909.078 189.458 909 190.227L907.984 190.812C907.984 189.536 908.108 188.339 908.355 187.219C908.616 186.099 909.013 185.109 909.547 184.25C910.081 183.378 910.758 182.701 911.578 182.219C912.411 181.724 913.401 181.477 914.547 181.477C914.807 181.477 915.107 181.509 915.445 181.574C915.784 181.626 916.018 181.685 916.148 181.75ZM927.555 200.422C928.414 200.422 929.208 200.246 929.938 199.895C930.667 199.543 931.266 199.061 931.734 198.449C932.203 197.824 932.47 197.115 932.535 196.32H935.973C935.908 197.57 935.484 198.736 934.703 199.816C933.935 200.884 932.926 201.75 931.676 202.414C930.426 203.065 929.052 203.391 927.555 203.391C925.966 203.391 924.579 203.111 923.395 202.551C922.223 201.991 921.246 201.223 920.465 200.246C919.697 199.27 919.117 198.15 918.727 196.887C918.349 195.611 918.16 194.263 918.16 192.844V192.023C918.16 190.604 918.349 189.263 918.727 188C919.117 186.724 919.697 185.598 920.465 184.621C921.246 183.645 922.223 182.876 923.395 182.316C924.579 181.757 925.966 181.477 927.555 181.477C929.208 181.477 930.654 181.815 931.891 182.492C933.128 183.156 934.098 184.068 934.801 185.227C935.517 186.372 935.908 187.674 935.973 189.133H932.535C932.47 188.26 932.223 187.473 931.793 186.77C931.376 186.066 930.803 185.507 930.074 185.09C929.358 184.66 928.518 184.445 927.555 184.445C926.448 184.445 925.517 184.667 924.762 185.109C924.02 185.539 923.427 186.125 922.984 186.867C922.555 187.596 922.242 188.41 922.047 189.309C921.865 190.194 921.773 191.099 921.773 192.023V192.844C921.773 193.768 921.865 194.68 922.047 195.578C922.229 196.477 922.535 197.29 922.965 198.02C923.408 198.749 924 199.335 924.742 199.777C925.497 200.207 926.435 200.422 927.555 200.422ZM943.648 173V203H940.035V173H943.648ZM942.789 191.633L941.285 191.574C941.298 190.129 941.513 188.794 941.93 187.57C942.346 186.333 942.932 185.259 943.688 184.348C944.443 183.436 945.341 182.733 946.383 182.238C947.438 181.73 948.603 181.477 949.879 181.477C950.921 181.477 951.858 181.62 952.691 181.906C953.525 182.18 954.234 182.622 954.82 183.234C955.419 183.846 955.875 184.641 956.188 185.617C956.5 186.581 956.656 187.759 956.656 189.152V203H953.023V189.113C953.023 188.007 952.861 187.121 952.535 186.457C952.21 185.78 951.734 185.292 951.109 184.992C950.484 184.68 949.716 184.523 948.805 184.523C947.906 184.523 947.086 184.712 946.344 185.09C945.615 185.467 944.983 185.988 944.449 186.652C943.928 187.316 943.518 188.078 943.219 188.938C942.932 189.784 942.789 190.682 942.789 191.633ZM980.758 203.391C979.286 203.391 977.952 203.143 976.754 202.648C975.569 202.141 974.547 201.431 973.688 200.52C972.841 199.608 972.19 198.527 971.734 197.277C971.279 196.027 971.051 194.66 971.051 193.176V192.355C971.051 190.637 971.305 189.107 971.812 187.766C972.32 186.411 973.01 185.266 973.883 184.328C974.755 183.391 975.745 182.681 976.852 182.199C977.958 181.717 979.104 181.477 980.289 181.477C981.799 181.477 983.102 181.737 984.195 182.258C985.302 182.779 986.207 183.508 986.91 184.445C987.613 185.37 988.134 186.464 988.473 187.727C988.811 188.977 988.98 190.344 988.98 191.828V193.449H973.199V190.5H985.367V190.227C985.315 189.289 985.12 188.378 984.781 187.492C984.456 186.607 983.935 185.878 983.219 185.305C982.503 184.732 981.526 184.445 980.289 184.445C979.469 184.445 978.714 184.621 978.023 184.973C977.333 185.311 976.741 185.819 976.246 186.496C975.751 187.173 975.367 188 975.094 188.977C974.82 189.953 974.684 191.079 974.684 192.355V193.176C974.684 194.178 974.82 195.122 975.094 196.008C975.38 196.88 975.79 197.648 976.324 198.312C976.871 198.977 977.529 199.497 978.297 199.875C979.078 200.253 979.964 200.441 980.953 200.441C982.229 200.441 983.31 200.181 984.195 199.66C985.081 199.139 985.855 198.443 986.52 197.57L988.707 199.309C988.251 199.999 987.672 200.656 986.969 201.281C986.266 201.906 985.4 202.414 984.371 202.805C983.355 203.195 982.151 203.391 980.758 203.391ZM996.812 186.379V203H993.199V181.867H996.617L996.812 186.379ZM995.953 191.633L994.449 191.574C994.462 190.129 994.677 188.794 995.094 187.57C995.51 186.333 996.096 185.259 996.852 184.348C997.607 183.436 998.505 182.733 999.547 182.238C1000.6 181.73 1001.77 181.477 1003.04 181.477C1004.08 181.477 1005.02 181.62 1005.86 181.906C1006.69 182.18 1007.4 182.622 1007.98 183.234C1008.58 183.846 1009.04 184.641 1009.35 185.617C1009.66 186.581 1009.82 187.759 1009.82 189.152V203H1006.19V189.113C1006.19 188.007 1006.02 187.121 1005.7 186.457C1005.37 185.78 1004.9 185.292 1004.27 184.992C1003.65 184.68 1002.88 184.523 1001.97 184.523C1001.07 184.523 1000.25 184.712 999.508 185.09C998.779 185.467 998.147 185.988 997.613 186.652C997.092 187.316 996.682 188.078 996.383 188.938C996.096 189.784 995.953 190.682 995.953 191.633ZM1029 181.867H1032.28V202.551C1032.28 204.413 1031.9 206.001 1031.15 207.316C1030.39 208.632 1029.34 209.628 1027.98 210.305C1026.64 210.995 1025.09 211.34 1023.34 211.34C1022.61 211.34 1021.75 211.223 1020.76 210.988C1019.78 210.767 1018.82 210.383 1017.87 209.836C1016.93 209.302 1016.14 208.579 1015.5 207.668L1017.4 205.52C1018.28 206.587 1019.21 207.329 1020.17 207.746C1021.15 208.163 1022.11 208.371 1023.06 208.371C1024.21 208.371 1025.2 208.156 1026.03 207.727C1026.86 207.297 1027.51 206.659 1027.96 205.812C1028.43 204.979 1028.67 203.951 1028.67 202.727V186.516L1029 181.867ZM1014.45 192.668V192.258C1014.45 190.643 1014.64 189.178 1015.02 187.863C1015.41 186.535 1015.96 185.396 1016.68 184.445C1017.4 183.495 1018.28 182.766 1019.31 182.258C1020.34 181.737 1021.5 181.477 1022.79 181.477C1024.12 181.477 1025.28 181.711 1026.27 182.18C1027.27 182.635 1028.11 183.306 1028.8 184.191C1029.51 185.064 1030.06 186.118 1030.46 187.355C1030.87 188.592 1031.15 189.992 1031.3 191.555V193.352C1031.16 194.901 1030.88 196.294 1030.46 197.531C1030.06 198.768 1029.51 199.823 1028.8 200.695C1028.11 201.568 1027.27 202.238 1026.27 202.707C1025.26 203.163 1024.09 203.391 1022.75 203.391C1021.49 203.391 1020.34 203.124 1019.31 202.59C1018.3 202.056 1017.42 201.307 1016.7 200.344C1015.97 199.38 1015.41 198.247 1015.02 196.945C1014.64 195.63 1014.45 194.204 1014.45 192.668ZM1018.06 192.258V192.668C1018.06 193.723 1018.17 194.712 1018.38 195.637C1018.6 196.561 1018.93 197.375 1019.37 198.078C1019.83 198.781 1020.41 199.335 1021.11 199.738C1021.81 200.129 1022.65 200.324 1023.63 200.324C1024.83 200.324 1025.82 200.07 1026.6 199.562C1027.38 199.055 1028 198.384 1028.45 197.551C1028.92 196.717 1029.29 195.812 1029.55 194.836V190.129C1029.4 189.413 1029.18 188.723 1028.88 188.059C1028.6 187.382 1028.22 186.783 1027.75 186.262C1027.29 185.728 1026.73 185.305 1026.05 184.992C1025.37 184.68 1024.58 184.523 1023.67 184.523C1022.68 184.523 1021.83 184.732 1021.11 185.148C1020.41 185.552 1019.83 186.112 1019.37 186.828C1018.93 187.531 1018.6 188.352 1018.38 189.289C1018.17 190.214 1018.06 191.203 1018.06 192.258ZM1041.7 181.867V203H1038.06V181.867H1041.7ZM1037.79 176.262C1037.79 175.676 1037.96 175.181 1038.32 174.777C1038.68 174.374 1039.21 174.172 1039.92 174.172C1040.61 174.172 1041.14 174.374 1041.5 174.777C1041.88 175.181 1042.07 175.676 1042.07 176.262C1042.07 176.822 1041.88 177.303 1041.5 177.707C1041.14 178.098 1040.61 178.293 1039.92 178.293C1039.21 178.293 1038.68 178.098 1038.32 177.707C1037.96 177.303 1037.79 176.822 1037.79 176.262ZM1051.11 186.379V203H1047.5V181.867H1050.91L1051.11 186.379ZM1050.25 191.633L1048.75 191.574C1048.76 190.129 1048.97 188.794 1049.39 187.57C1049.81 186.333 1050.39 185.259 1051.15 184.348C1051.9 183.436 1052.8 182.733 1053.84 182.238C1054.9 181.73 1056.06 181.477 1057.34 181.477C1058.38 181.477 1059.32 181.62 1060.15 181.906C1060.99 182.18 1061.7 182.622 1062.28 183.234C1062.88 183.846 1063.34 184.641 1063.65 185.617C1063.96 186.581 1064.12 187.759 1064.12 189.152V203H1060.48V189.113C1060.48 188.007 1060.32 187.121 1060 186.457C1059.67 185.78 1059.2 185.292 1058.57 184.992C1057.95 184.68 1057.18 184.523 1056.27 184.523C1055.37 184.523 1054.55 184.712 1053.8 185.09C1053.08 185.467 1052.44 185.988 1051.91 186.652C1051.39 187.316 1050.98 188.078 1050.68 188.938C1050.39 189.784 1050.25 190.682 1050.25 191.633ZM1078.38 203.391C1076.9 203.391 1075.57 203.143 1074.37 202.648C1073.19 202.141 1072.16 201.431 1071.3 200.52C1070.46 199.608 1069.81 198.527 1069.35 197.277C1068.9 196.027 1068.67 194.66 1068.67 193.176V192.355C1068.67 190.637 1068.92 189.107 1069.43 187.766C1069.94 186.411 1070.63 185.266 1071.5 184.328C1072.37 183.391 1073.36 182.681 1074.47 182.199C1075.58 181.717 1076.72 181.477 1077.91 181.477C1079.42 181.477 1080.72 181.737 1081.81 182.258C1082.92 182.779 1083.82 183.508 1084.53 184.445C1085.23 185.37 1085.75 186.464 1086.09 187.727C1086.43 188.977 1086.6 190.344 1086.6 191.828V193.449H1070.82V190.5H1082.98V190.227C1082.93 189.289 1082.74 188.378 1082.4 187.492C1082.07 186.607 1081.55 185.878 1080.84 185.305C1080.12 184.732 1079.14 184.445 1077.91 184.445C1077.09 184.445 1076.33 184.621 1075.64 184.973C1074.95 185.311 1074.36 185.819 1073.86 186.496C1073.37 187.173 1072.98 188 1072.71 188.977C1072.44 189.953 1072.3 191.079 1072.3 192.355V193.176C1072.3 194.178 1072.44 195.122 1072.71 196.008C1073 196.88 1073.41 197.648 1073.94 198.312C1074.49 198.977 1075.15 199.497 1075.91 199.875C1076.7 200.253 1077.58 200.441 1078.57 200.441C1079.85 200.441 1080.93 200.181 1081.81 199.66C1082.7 199.139 1083.47 198.443 1084.14 197.57L1086.32 199.309C1085.87 199.999 1085.29 200.656 1084.59 201.281C1083.88 201.906 1083.02 202.414 1081.99 202.805C1080.97 203.195 1079.77 203.391 1078.38 203.391Z" fill="#676767"/>
<path d="M224.62 119.975V133H181.48V119.975H224.62ZM186.936 51.9531V133H170.236V51.9531H186.936ZM218.998 84.9619V97.6533H181.48V84.9619H218.998ZM224.564 51.9531V65.0342H181.48V51.9531H224.564ZM249.391 85.2402V133H233.304V72.7715H248.389L249.391 85.2402ZM247.164 100.771H242.711C242.711 96.5771 243.212 92.7178 244.214 89.1924C245.253 85.6299 246.756 82.5498 248.723 79.9521C250.727 77.3174 253.194 75.2764 256.126 73.8291C259.058 72.3818 262.453 71.6582 266.312 71.6582C268.984 71.6582 271.434 72.0664 273.66 72.8828C275.887 73.6621 277.798 74.9053 279.394 76.6123C281.026 78.2822 282.288 80.4717 283.179 83.1807C284.069 85.8525 284.515 89.0625 284.515 92.8105V133H268.483V94.5918C268.483 91.8457 268.112 89.7305 267.37 88.2461C266.628 86.7617 265.57 85.7227 264.197 85.1289C262.861 84.5352 261.247 84.2383 259.354 84.2383C257.276 84.2383 255.458 84.665 253.899 85.5186C252.378 86.3721 251.116 87.5596 250.114 89.0811C249.112 90.5654 248.37 92.3096 247.888 94.3135C247.405 96.3174 247.164 98.4697 247.164 100.771ZM283.012 98.9336L277.278 99.6572C277.278 95.7236 277.761 92.0684 278.726 88.6914C279.728 85.3145 281.193 82.3457 283.123 79.7852C285.09 77.2246 287.521 75.2393 290.415 73.8291C293.31 72.3818 296.649 71.6582 300.435 71.6582C303.329 71.6582 305.964 72.085 308.339 72.9385C310.714 73.7549 312.736 75.0723 314.406 76.8906C316.113 78.6719 317.412 81.0098 318.303 83.9043C319.23 86.7988 319.694 90.3428 319.694 94.5361V133H303.607V94.5361C303.607 91.7529 303.236 89.6377 302.494 88.1904C301.789 86.7061 300.75 85.6855 299.377 85.1289C298.041 84.5352 296.445 84.2383 294.59 84.2383C292.66 84.2383 290.972 84.6279 289.524 85.4072C288.077 86.1494 286.871 87.1885 285.906 88.5244C284.941 89.8604 284.218 91.4189 283.735 93.2002C283.253 94.9443 283.012 96.8555 283.012 98.9336ZM332.107 47.5H348.139V119.195L346.524 133H332.107V47.5ZM386.269 102.273V103.442C386.269 107.933 385.786 112.052 384.821 115.8C383.894 119.548 382.446 122.795 380.479 125.541C378.513 128.25 376.063 130.365 373.132 131.887C370.237 133.371 366.823 134.113 362.89 134.113C359.216 134.113 356.024 133.371 353.315 131.887C350.644 130.402 348.398 128.306 346.58 125.597C344.762 122.888 343.296 119.715 342.183 116.078C341.069 112.441 340.234 108.471 339.678 104.166V101.605C340.234 97.3008 341.069 93.3301 342.183 89.6934C343.296 86.0566 344.762 82.8838 346.58 80.1748C348.398 77.4658 350.644 75.3691 353.315 73.8848C355.987 72.4004 359.142 71.6582 362.778 71.6582C366.749 71.6582 370.2 72.4189 373.132 73.9404C376.101 75.4248 378.55 77.54 380.479 80.2861C382.446 82.9951 383.894 86.2236 384.821 89.9717C385.786 93.6826 386.269 97.7832 386.269 102.273ZM370.237 103.442V102.273C370.237 99.8242 370.052 97.5234 369.681 95.3711C369.347 93.1816 368.753 91.2705 367.899 89.6377C367.046 87.9678 365.877 86.6504 364.393 85.6855C362.945 84.7207 361.071 84.2383 358.771 84.2383C356.581 84.2383 354.726 84.6094 353.204 85.3516C351.683 86.0938 350.421 87.1328 349.419 88.4688C348.454 89.8047 347.73 91.4004 347.248 93.2559C346.766 95.0742 346.469 97.0781 346.357 99.2676V106.56C346.469 109.491 346.951 112.089 347.805 114.353C348.695 116.579 350.031 118.342 351.812 119.641C353.631 120.902 355.987 121.533 358.882 121.533C361.146 121.533 363.02 121.088 364.504 120.197C365.988 119.307 367.139 118.045 367.955 116.412C368.809 114.779 369.402 112.868 369.736 110.679C370.07 108.452 370.237 106.04 370.237 103.442ZM423.953 134.113C419.277 134.113 415.084 133.371 411.373 131.887C407.662 130.365 404.508 128.269 401.91 125.597C399.35 122.925 397.383 119.826 396.01 116.301C394.637 112.738 393.95 108.953 393.95 104.945V102.719C393.95 98.1543 394.6 93.9795 395.898 90.1943C397.197 86.4092 399.053 83.125 401.465 80.3418C403.914 77.5586 406.883 75.4248 410.371 73.9404C413.859 72.4189 417.793 71.6582 422.172 71.6582C426.439 71.6582 430.225 72.3633 433.527 73.7734C436.83 75.1836 439.595 77.1875 441.821 79.7852C444.085 82.3828 445.792 85.5 446.942 89.1367C448.093 92.7363 448.668 96.7441 448.668 101.16V107.84H400.797V97.1523H432.915V95.9277C432.915 93.7012 432.507 91.7158 431.69 89.9717C430.911 88.1904 429.724 86.7803 428.128 85.7412C426.532 84.7021 424.491 84.1826 422.005 84.1826C419.89 84.1826 418.071 84.6465 416.55 85.5742C415.028 86.502 413.785 87.8008 412.82 89.4707C411.893 91.1406 411.188 93.1074 410.705 95.3711C410.26 97.5977 410.037 100.047 410.037 102.719V104.945C410.037 107.357 410.371 109.584 411.039 111.625C411.744 113.666 412.728 115.429 413.989 116.913C415.288 118.397 416.847 119.548 418.665 120.364C420.521 121.181 422.617 121.589 424.955 121.589C427.85 121.589 430.54 121.032 433.026 119.919C435.55 118.769 437.721 117.043 439.539 114.742L447.332 123.203C446.07 125.021 444.345 126.766 442.155 128.436C440.003 130.105 437.405 131.479 434.362 132.555C431.319 133.594 427.85 134.113 423.953 134.113ZM493.366 119.863V47.5H509.509V133H494.98L493.366 119.863ZM455.292 103.609V102.44C455.292 97.8389 455.812 93.6641 456.851 89.916C457.89 86.1309 459.411 82.8838 461.415 80.1748C463.419 77.4658 465.887 75.3691 468.818 73.8848C471.75 72.4004 475.09 71.6582 478.838 71.6582C482.363 71.6582 485.443 72.4004 488.078 73.8848C490.75 75.3691 493.014 77.4844 494.869 80.2305C496.762 82.9395 498.283 86.1494 499.434 89.8604C500.584 93.5342 501.419 97.5605 501.938 101.939V104.5C501.419 108.693 500.584 112.59 499.434 116.189C498.283 119.789 496.762 122.943 494.869 125.652C493.014 128.324 490.75 130.402 488.078 131.887C485.406 133.371 482.289 134.113 478.727 134.113C474.979 134.113 471.639 133.353 468.707 131.831C465.812 130.31 463.363 128.176 461.359 125.43C459.393 122.684 457.89 119.455 456.851 115.744C455.812 112.033 455.292 107.988 455.292 103.609ZM471.323 102.44V103.609C471.323 106.096 471.509 108.415 471.88 110.567C472.288 112.72 472.938 114.631 473.828 116.301C474.756 117.934 475.943 119.214 477.391 120.142C478.875 121.032 480.675 121.478 482.79 121.478C485.536 121.478 487.8 120.865 489.581 119.641C491.362 118.379 492.717 116.653 493.645 114.464C494.609 112.274 495.166 109.751 495.314 106.894V99.6016C495.203 97.2637 494.869 95.167 494.312 93.3115C493.793 91.4189 493.014 89.8047 491.975 88.4688C490.973 87.1328 489.711 86.0938 488.189 85.3516C486.705 84.6094 484.942 84.2383 482.901 84.2383C480.823 84.2383 479.042 84.7207 477.558 85.6855C476.073 86.6133 474.867 87.8936 473.939 89.5264C473.049 91.1592 472.381 93.0889 471.936 95.3154C471.527 97.5049 471.323 99.8799 471.323 102.44ZM557.603 119.863V47.5H573.745V133H559.217L557.603 119.863ZM519.528 103.609V102.44C519.528 97.8389 520.048 93.6641 521.087 89.916C522.126 86.1309 523.647 82.8838 525.651 80.1748C527.655 77.4658 530.123 75.3691 533.055 73.8848C535.986 72.4004 539.326 71.6582 543.074 71.6582C546.6 71.6582 549.68 72.4004 552.314 73.8848C554.986 75.3691 557.25 77.4844 559.105 80.2305C560.998 82.9395 562.52 86.1494 563.67 89.8604C564.82 93.5342 565.655 97.5605 566.175 101.939V104.5C565.655 108.693 564.82 112.59 563.67 116.189C562.52 119.789 560.998 122.943 559.105 125.652C557.25 128.324 554.986 130.402 552.314 131.887C549.643 133.371 546.525 134.113 542.963 134.113C539.215 134.113 535.875 133.353 532.943 131.831C530.049 130.31 527.6 128.176 525.596 125.43C523.629 122.684 522.126 119.455 521.087 115.744C520.048 112.033 519.528 107.988 519.528 103.609ZM535.56 102.44V103.609C535.56 106.096 535.745 108.415 536.116 110.567C536.524 112.72 537.174 114.631 538.064 116.301C538.992 117.934 540.18 119.214 541.627 120.142C543.111 121.032 544.911 121.478 547.026 121.478C549.772 121.478 552.036 120.865 553.817 119.641C555.599 118.379 556.953 116.653 557.881 114.464C558.846 112.274 559.402 109.751 559.551 106.894V99.6016C559.439 97.2637 559.105 95.167 558.549 93.3115C558.029 91.4189 557.25 89.8047 556.211 88.4688C555.209 87.1328 553.947 86.0938 552.426 85.3516C550.941 84.6094 549.179 84.2383 547.138 84.2383C545.06 84.2383 543.278 84.7207 541.794 85.6855C540.31 86.6133 539.104 87.8936 538.176 89.5264C537.285 91.1592 536.617 93.0889 536.172 95.3154C535.764 97.5049 535.56 99.8799 535.56 102.44ZM603.191 72.7715V133H587.104V72.7715H603.191ZM586.103 57.0742C586.103 54.7363 586.919 52.8066 588.552 51.2852C590.185 49.7637 592.374 49.0029 595.12 49.0029C597.829 49.0029 600 49.7637 601.633 51.2852C603.303 52.8066 604.138 54.7363 604.138 57.0742C604.138 59.4121 603.303 61.3418 601.633 62.8633C600 64.3848 597.829 65.1455 595.12 65.1455C592.374 65.1455 590.185 64.3848 588.552 62.8633C586.919 61.3418 586.103 59.4121 586.103 57.0742ZM632.137 85.6299V133H616.105V72.7715H631.135L632.137 85.6299ZM629.799 100.771H625.457C625.457 96.3174 626.032 92.3096 627.183 88.7471C628.333 85.1475 629.947 82.0859 632.025 79.5625C634.104 77.002 636.571 75.0537 639.429 73.7178C642.323 72.3447 645.552 71.6582 649.114 71.6582C651.935 71.6582 654.514 72.0664 656.852 72.8828C659.189 73.6992 661.193 74.998 662.863 76.7793C664.57 78.5605 665.869 80.917 666.76 83.8486C667.688 86.7803 668.151 90.3613 668.151 94.5918V133H652.009V94.5361C652.009 91.8643 651.638 89.7861 650.896 88.3018C650.153 86.8174 649.059 85.7783 647.611 85.1846C646.201 84.5537 644.457 84.2383 642.379 84.2383C640.227 84.2383 638.353 84.665 636.757 85.5186C635.198 86.3721 633.899 87.5596 632.86 89.0811C631.858 90.5654 631.098 92.3096 630.578 94.3135C630.059 96.3174 629.799 98.4697 629.799 100.771ZM718.472 72.7715H733V130.996C733 136.488 731.775 141.146 729.326 144.968C726.914 148.827 723.537 151.74 719.195 153.707C714.854 155.711 709.807 156.713 704.055 156.713C701.531 156.713 698.859 156.379 696.039 155.711C693.256 155.043 690.584 154.004 688.023 152.594C685.5 151.184 683.385 149.402 681.678 147.25L688.747 137.787C690.603 139.939 692.755 141.609 695.204 142.797C697.653 144.021 700.362 144.634 703.331 144.634C706.226 144.634 708.675 144.096 710.679 143.02C712.683 141.98 714.223 140.44 715.299 138.399C716.375 136.396 716.913 133.965 716.913 131.107V86.6875L718.472 72.7715ZM677.948 103.609V102.44C677.948 97.8389 678.505 93.6641 679.618 89.916C680.769 86.1309 682.383 82.8838 684.461 80.1748C686.576 77.4658 689.137 75.3691 692.143 73.8848C695.148 72.4004 698.544 71.6582 702.329 71.6582C706.337 71.6582 709.695 72.4004 712.404 73.8848C715.113 75.3691 717.34 77.4844 719.084 80.2305C720.828 82.9395 722.183 86.1494 723.147 89.8604C724.149 93.5342 724.929 97.5605 725.485 101.939V104.5C724.929 108.693 724.094 112.59 722.98 116.189C721.867 119.789 720.401 122.943 718.583 125.652C716.765 128.324 714.501 130.402 711.792 131.887C709.12 133.371 705.929 134.113 702.218 134.113C698.507 134.113 695.148 133.353 692.143 131.831C689.174 130.31 686.632 128.176 684.517 125.43C682.401 122.684 680.769 119.455 679.618 115.744C678.505 112.033 677.948 107.988 677.948 103.609ZM693.979 102.44V103.609C693.979 106.096 694.221 108.415 694.703 110.567C695.186 112.72 695.928 114.631 696.93 116.301C697.969 117.934 699.249 119.214 700.771 120.142C702.329 121.032 704.166 121.478 706.281 121.478C709.213 121.478 711.606 120.865 713.462 119.641C715.317 118.379 716.709 116.653 717.637 114.464C718.564 112.274 719.103 109.751 719.251 106.894V99.6016C719.177 97.2637 718.861 95.167 718.305 93.3115C717.748 91.4189 716.969 89.8047 715.967 88.4688C714.965 87.1328 713.666 86.0938 712.07 85.3516C710.475 84.6094 708.582 84.2383 706.393 84.2383C704.277 84.2383 702.44 84.7207 700.882 85.6855C699.36 86.6133 698.08 87.8936 697.041 89.5264C696.039 91.1592 695.278 93.0889 694.759 95.3154C694.239 97.5049 693.979 99.8799 693.979 102.44ZM817.053 111.792C817.053 110.345 816.83 109.046 816.385 107.896C815.977 106.708 815.197 105.632 814.047 104.667C812.896 103.665 811.282 102.682 809.204 101.717C807.126 100.752 804.436 99.75 801.133 98.7109C797.459 97.5234 793.971 96.1875 790.668 94.7031C787.402 93.2188 784.508 91.4932 781.984 89.5264C779.498 87.5225 777.531 85.2031 776.084 82.5684C774.674 79.9336 773.969 76.8721 773.969 73.3838C773.969 70.0068 774.711 66.9453 776.195 64.1992C777.68 61.416 779.758 59.041 782.43 57.0742C785.102 55.0703 788.256 53.5303 791.893 52.4541C795.566 51.3779 799.593 50.8398 803.972 50.8398C809.946 50.8398 815.16 51.916 819.613 54.0684C824.066 56.2207 827.518 59.1709 829.967 62.9189C832.453 66.667 833.696 70.9531 833.696 75.7773H817.108C817.108 73.4023 816.607 71.3242 815.605 69.543C814.641 67.7246 813.156 66.2959 811.152 65.2568C809.186 64.2178 806.699 63.6982 803.693 63.6982C800.799 63.6982 798.387 64.1436 796.457 65.0342C794.527 65.8877 793.08 67.0566 792.115 68.541C791.15 69.9883 790.668 71.6211 790.668 73.4395C790.668 74.8125 791.002 76.0557 791.67 77.1689C792.375 78.2822 793.414 79.3213 794.787 80.2861C796.16 81.251 797.849 82.1602 799.853 83.0137C801.856 83.8672 804.176 84.7021 806.811 85.5186C811.227 86.8545 815.104 88.3574 818.444 90.0273C821.821 91.6973 824.642 93.5713 826.905 95.6494C829.169 97.7275 830.876 100.084 832.026 102.719C833.177 105.354 833.752 108.341 833.752 111.681C833.752 115.206 833.065 118.36 831.692 121.144C830.319 123.927 828.334 126.283 825.736 128.213C823.139 130.143 820.04 131.608 816.44 132.61C812.841 133.612 808.814 134.113 804.361 134.113C800.354 134.113 796.401 133.594 792.505 132.555C788.608 131.479 785.064 129.864 781.873 127.712C778.719 125.56 776.195 122.813 774.303 119.474C772.41 116.134 771.464 112.182 771.464 107.617H788.219C788.219 110.141 788.608 112.274 789.388 114.019C790.167 115.763 791.262 117.173 792.672 118.249C794.119 119.325 795.826 120.104 797.793 120.587C799.797 121.069 801.986 121.311 804.361 121.311C807.256 121.311 809.631 120.902 811.486 120.086C813.379 119.27 814.771 118.138 815.661 116.69C816.589 115.243 817.053 113.61 817.053 111.792ZM873.607 72.7715V84.127H838.539V72.7715H873.607ZM847.223 57.9092H863.254V114.854C863.254 116.598 863.477 117.934 863.922 118.861C864.404 119.789 865.109 120.438 866.037 120.81C866.965 121.144 868.134 121.311 869.544 121.311C870.546 121.311 871.437 121.273 872.216 121.199C873.032 121.088 873.719 120.977 874.275 120.865L874.331 132.666C872.958 133.111 871.474 133.464 869.878 133.724C868.282 133.983 866.52 134.113 864.59 134.113C861.064 134.113 857.984 133.538 855.35 132.388C852.752 131.2 850.748 129.308 849.338 126.71C847.928 124.112 847.223 120.698 847.223 116.468V57.9092ZM918.361 118.583V72.7715H934.393V133H919.308L918.361 118.583ZM920.143 106.226L924.874 106.114C924.874 110.122 924.41 113.852 923.482 117.303C922.555 120.717 921.163 123.686 919.308 126.209C917.452 128.695 915.114 130.644 912.294 132.054C909.474 133.427 906.152 134.113 902.33 134.113C899.398 134.113 896.689 133.705 894.203 132.889C891.754 132.035 889.639 130.718 887.857 128.937C886.113 127.118 884.74 124.799 883.738 121.979C882.773 119.121 882.291 115.688 882.291 111.681V72.7715H898.322V111.792C898.322 113.573 898.526 115.076 898.935 116.301C899.38 117.525 899.992 118.527 900.771 119.307C901.551 120.086 902.46 120.643 903.499 120.977C904.575 121.311 905.763 121.478 907.062 121.478C910.364 121.478 912.962 120.81 914.854 119.474C916.784 118.138 918.139 116.319 918.918 114.019C919.734 111.681 920.143 109.083 920.143 106.226ZM982.208 119.863V47.5H998.351V133H983.822L982.208 119.863ZM944.134 103.609V102.44C944.134 97.8389 944.653 93.6641 945.692 89.916C946.731 86.1309 948.253 82.8838 950.257 80.1748C952.261 77.4658 954.729 75.3691 957.66 73.8848C960.592 72.4004 963.932 71.6582 967.68 71.6582C971.205 71.6582 974.285 72.4004 976.92 73.8848C979.592 75.3691 981.855 77.4844 983.711 80.2305C985.604 82.9395 987.125 86.1494 988.275 89.8604C989.426 93.5342 990.261 97.5605 990.78 101.939V104.5C990.261 108.693 989.426 112.59 988.275 116.189C987.125 119.789 985.604 122.943 983.711 125.652C981.855 128.324 979.592 130.402 976.92 131.887C974.248 133.371 971.131 134.113 967.568 134.113C963.82 134.113 960.48 133.353 957.549 131.831C954.654 130.31 952.205 128.176 950.201 125.43C948.234 122.684 946.731 119.455 945.692 115.744C944.653 112.033 944.134 107.988 944.134 103.609ZM960.165 102.44V103.609C960.165 106.096 960.351 108.415 960.722 110.567C961.13 112.72 961.779 114.631 962.67 116.301C963.598 117.934 964.785 119.214 966.232 120.142C967.717 121.032 969.517 121.478 971.632 121.478C974.378 121.478 976.642 120.865 978.423 119.641C980.204 118.379 981.559 116.653 982.486 114.464C983.451 112.274 984.008 109.751 984.156 106.894V99.6016C984.045 97.2637 983.711 95.167 983.154 93.3115C982.635 91.4189 981.855 89.8047 980.816 88.4688C979.814 87.1328 978.553 86.0938 977.031 85.3516C975.547 84.6094 973.784 84.2383 971.743 84.2383C969.665 84.2383 967.884 84.7207 966.399 85.6855C964.915 86.6133 963.709 87.8936 962.781 89.5264C961.891 91.1592 961.223 93.0889 960.777 95.3154C960.369 97.5049 960.165 99.8799 960.165 102.44ZM1027.8 72.7715V133H1011.71V72.7715H1027.8ZM1010.71 57.0742C1010.71 54.7363 1011.52 52.8066 1013.16 51.2852C1014.79 49.7637 1016.98 49.0029 1019.73 49.0029C1022.43 49.0029 1024.61 49.7637 1026.24 51.2852C1027.91 52.8066 1028.74 54.7363 1028.74 57.0742C1028.74 59.4121 1027.91 61.3418 1026.24 62.8633C1024.61 64.3848 1022.43 65.1455 1019.73 65.1455C1016.98 65.1455 1014.79 64.3848 1013.16 62.8633C1011.52 61.3418 1010.71 59.4121 1010.71 57.0742ZM1038.48 103.498V102.329C1038.48 97.9131 1039.12 93.8496 1040.38 90.1387C1041.64 86.3906 1043.48 83.1436 1045.89 80.3975C1048.3 77.6514 1051.27 75.5176 1054.79 73.9961C1058.32 72.4375 1062.36 71.6582 1066.93 71.6582C1071.49 71.6582 1075.56 72.4375 1079.12 73.9961C1082.68 75.5176 1085.67 77.6514 1088.08 80.3975C1090.53 83.1436 1092.39 86.3906 1093.65 90.1387C1094.91 93.8496 1095.54 97.9131 1095.54 102.329V103.498C1095.54 107.877 1094.91 111.94 1093.65 115.688C1092.39 119.399 1090.53 122.646 1088.08 125.43C1085.67 128.176 1082.7 130.31 1079.17 131.831C1075.65 133.353 1071.6 134.113 1067.04 134.113C1062.48 134.113 1058.41 133.353 1054.85 131.831C1051.32 130.31 1048.34 128.176 1045.89 125.43C1043.48 122.646 1041.64 119.399 1040.38 115.688C1039.12 111.94 1038.48 107.877 1038.48 103.498ZM1054.52 102.329V103.498C1054.52 106.021 1054.74 108.378 1055.18 110.567C1055.63 112.757 1056.33 114.687 1057.3 116.356C1058.3 117.989 1059.6 119.27 1061.2 120.197C1062.79 121.125 1064.74 121.589 1067.04 121.589C1069.27 121.589 1071.18 121.125 1072.77 120.197C1074.37 119.27 1075.65 117.989 1076.61 116.356C1077.58 114.687 1078.28 112.757 1078.73 110.567C1079.21 108.378 1079.45 106.021 1079.45 103.498V102.329C1079.45 99.8799 1079.21 97.5791 1078.73 95.4268C1078.28 93.2373 1077.56 91.3076 1076.56 89.6377C1075.59 87.9307 1074.31 86.5947 1072.72 85.6299C1071.12 84.665 1069.19 84.1826 1066.93 84.1826C1064.67 84.1826 1062.74 84.665 1061.14 85.6299C1059.58 86.5947 1058.3 87.9307 1057.3 89.6377C1056.33 91.3076 1055.63 93.2373 1055.18 95.4268C1054.74 97.5791 1054.52 99.8799 1054.52 102.329Z" fill="#735EBD"/>
<path fill-rule="evenodd" clip-rule="evenodd" d="M59.0377 0L36.5742 101.196L87.8754 134.122L114.999 92.9752L59.0377 0Z" fill="#735EBD"/>
<path fill-rule="evenodd" clip-rule="evenodd" d="M59.0382 0L0 85.9416L6.55003 134.122L36.5746 101.196L59.0382 0Z" fill="black"/>
<path fill-rule="evenodd" clip-rule="evenodd" d="M6.5498 134.122L36.5744 101.196L87.8756 134.122L59.0379 219.624L6.5498 134.122Z" fill="#4D4D4D"/>
<path fill-rule="evenodd" clip-rule="evenodd" d="M87.8777 134.121L115.001 92.9749V120.318L59.04 219.623L87.8777 134.121Z" fill="black"/>
</svg>
