<svg width="26" height="52" viewBox="0 0 26 52" fill="none" xmlns="http://www.w3.org/2000/svg">
<path fill-rule="evenodd" clip-rule="evenodd" d="M26 0.487061L25.9 16.3671L25.81 32.2471L13.05 41.6971L0.290039 51.1571L0.380039 35.2771L0.480039 19.3971L13.24 9.93706L26 0.487061Z" fill="black"/>
<path fill-rule="evenodd" clip-rule="evenodd" d="M25.81 32.247L21.44 26.967L15.25 26.897L0.290039 51.157L25.81 32.247Z" fill="black"/>
<path fill-rule="evenodd" clip-rule="evenodd" d="M15.25 26.8971L10.56 21.4471L4.46004 21.4171L0.290039 51.1571L15.25 26.8971Z" fill="#4D4D4D"/>
<path fill-rule="evenodd" clip-rule="evenodd" d="M4.46004 21.4171L3.06004 17.4771L0.480039 19.3971L0.290039 51.1571L4.46004 21.4171Z" fill="black"/>
<path fill-rule="evenodd" clip-rule="evenodd" d="M4.46006 21.4171L3.06006 17.4771L26.0001 0.487061L10.5601 21.4471L4.46006 21.4171Z" fill="black"/>
<path fill-rule="evenodd" clip-rule="evenodd" d="M10.5601 21.4471L15.2501 26.8971L21.4401 26.9671L26.0001 0.487061L10.5601 21.4471Z" fill="#6666FF"/>
<path fill-rule="evenodd" clip-rule="evenodd" d="M21.4401 26.9671L25.8101 32.2471L26.0001 0.487061L21.4401 26.9671Z" fill="black"/>
</svg>
