<svg width="47" height="47" viewBox="0 0 47 47" fill="none" xmlns="http://www.w3.org/2000/svg">
<path fill-rule="evenodd" clip-rule="evenodd" d="M24.8401 30.9071L30.7101 14.7671L16.4301 2.8371L1.47009 8.5271L8.36009 21.3571L24.8401 30.9071Z" fill="#6666FF"/>
<path fill-rule="evenodd" clip-rule="evenodd" d="M24.84 30.9071L8.35999 21.3571L9.06999 34.9271L24.84 46.1171L33.99 42.2271L24.84 30.9071Z" fill="#4D4D4D"/>
<path fill-rule="evenodd" clip-rule="evenodd" d="M9.07004 34.9271L8.36004 21.3571L1.47004 8.5271L0.290039 14.7071L3.07004 29.8571L9.07004 34.9271Z" fill="black"/>
<path fill-rule="evenodd" clip-rule="evenodd" d="M30.7101 14.7672L24.8401 30.9072L33.9901 42.2272L43.8801 33.5072L46.6001 14.9572L30.7101 14.7672Z" fill="black"/>
<path fill-rule="evenodd" clip-rule="evenodd" d="M30.7101 14.7671L46.6001 14.9571L45.0001 5.12712L30.5901 0.487122L16.4301 2.83712L30.7101 14.7671Z" fill="#4D4D4D"/>
</svg>
