<svg width="45" height="39" viewBox="0 0 45 39" fill="none" xmlns="http://www.w3.org/2000/svg">
<path fill-rule="evenodd" clip-rule="evenodd" d="M0.290039 3.94712L11.63 31.9571L33.69 38.7671L44.98 0.487122L0.290039 3.94712Z" fill="black"/>
<path fill-rule="evenodd" clip-rule="evenodd" d="M11.63 31.9571L12.09 27.4271L0.290039 3.94714L11.63 31.9571Z" fill="#4D4D4D"/>
<path fill-rule="evenodd" clip-rule="evenodd" d="M12.09 27.4271L11.63 31.9571L33.69 38.7671L12.09 27.4271Z" fill="#4D4D4D"/>
<path fill-rule="evenodd" clip-rule="evenodd" d="M12.09 27.4271L33.69 38.7671L0.290039 3.94714L12.09 27.4271Z" fill="black"/>
<path fill-rule="evenodd" clip-rule="evenodd" d="M0.290039 3.94714L33.69 38.7671L28.13 12.5071L0.290039 3.94714Z" fill="#6666FF"/>
<path fill-rule="evenodd" clip-rule="evenodd" d="M28.13 12.5071L33.69 38.7671L44.98 0.487122L28.13 12.5071Z" fill="#4D4D4D"/>
<path fill-rule="evenodd" clip-rule="evenodd" d="M28.13 12.5071L44.98 0.487122L0.290039 3.94712L28.13 12.5071Z" fill="black"/>
</svg>
